<svg width="510" height="48" viewBox="0 0 510 48" fill="none" xmlns="http://www.w3.org/2000/svg">
<path d="M91.0786 11.5342V39.2524" stroke="black" stroke-opacity="0.3" stroke-width="2.5"/>
<path d="M269.908 11.5342V39.2524" stroke="black" stroke-opacity="0.3" stroke-width="2.5"/>
<path d="M345.549 11.5342V39.2524" stroke="black" stroke-opacity="0.3" stroke-width="2.5"/>
<path d="M443.646 11.5342V39.2524" stroke="black" stroke-opacity="0.3" stroke-width="2.5"/>
<path fill-rule="evenodd" clip-rule="evenodd" d="M499.212 15.4565V39.51H493.505V16.6595L499.212 15.4565ZM482.962 41.7894C484.538 41.7894 485.816 43.0563 485.816 44.6191C485.816 46.182 484.538 47.4489 482.962 47.4489C481.387 47.4489 480.109 46.182 480.109 44.6191C480.109 43.0563 481.386 41.7894 482.962 41.7894ZM482.962 22.2877C487.821 22.2877 491.768 26.194 491.768 31.02C491.768 35.8468 487.821 39.7539 482.962 39.7539C478.096 39.7539 474.157 35.8468 474.157 31.02C474.157 26.194 478.104 22.2877 482.962 22.2877ZM482.962 33.8497C484.54 33.8497 485.816 32.5844 485.816 31.02C485.816 29.4564 484.54 28.1903 482.962 28.1903C481.385 28.1903 480.109 29.4564 480.109 31.02C480.109 32.5844 481.385 33.8497 482.962 33.8497ZM465.008 33.8497C465.992 33.8497 466.792 33.0563 466.792 32.0821C466.789 31.6112 466.6 31.1605 466.266 30.8289C465.932 30.4972 465.479 30.3117 465.008 30.313H460.729V33.8497H465.008ZM460.729 21.1168V24.6535H463.899C464.882 24.6535 465.683 23.8593 465.683 22.8844C465.68 22.4137 465.49 21.9634 465.156 21.6321C464.822 21.3008 464.37 21.1155 463.899 21.1168H460.729ZM470.264 26.7914C471.643 28.1431 472.499 30.0146 472.491 32.0813C472.491 36.1844 469.139 39.51 465 39.51H455.013V15.4565H463.891C468.028 15.4565 471.381 18.7813 471.381 22.8844C471.381 24.316 470.977 25.6597 470.264 26.7914ZM509.992 28.2695H507.146V32.7108C507.146 34.0545 507.582 35.0446 508.723 35.0446C509.461 35.0446 510 34.8799 510 34.8799V39.0461C510 39.0461 508.819 39.7531 507.217 39.7531H507.146C507.074 39.7531 507.012 39.7451 506.94 39.7451H506.885C506.853 39.7451 506.813 39.7371 506.782 39.7371C503.595 39.5723 501.431 37.584 501.431 34.1329V19.4884L507.138 18.2863V22.6092H509.992V28.2695Z" fill="#006CFF"/>
<path fill-rule="evenodd" clip-rule="evenodd" d="M224.609 27.4923C224.609 29.7223 223.458 31.8547 219.383 31.8547C215.307 31.8547 214.157 29.7223 214.157 27.4923C214.157 25.2622 215.307 23.1299 219.383 23.1299C223.458 23.1299 224.609 25.2622 224.609 27.4923ZM216.682 27.4923C216.682 29.0759 217.545 30.3036 219.383 30.3036C221.221 30.3036 222.084 29.0759 222.084 27.4923C222.084 25.9087 221.221 24.6809 219.383 24.6809C217.545 24.6809 216.682 25.9087 216.682 27.4923Z" fill="#006CFF"/>
<path fill-rule="evenodd" clip-rule="evenodd" d="M229.509 20.9653V23.4372H232.37V24.9882H229.509V28.7693C229.509 29.6584 229.877 30.1428 230.803 30.1428C231.331 30.1428 231.97 30.0939 232.306 29.9971V31.5481C231.65 31.6295 230.915 31.6938 230.244 31.6938C227.815 31.6938 227.08 30.9016 227.08 28.9956V24.9882H224.841V23.4372H227.08V21.7087L229.509 20.9653Z" fill="#006CFF"/>
<path fill-rule="evenodd" clip-rule="evenodd" d="M235.334 28.0419C235.334 29.7386 236.724 30.4005 238.099 30.4005C238.817 30.4005 239.888 30.1425 240.144 29.3665H242.734C242.494 31.3865 239.68 31.8547 238.035 31.8547C233.959 31.8547 232.808 29.7223 232.808 27.4923C232.808 25.2631 233.959 23.1299 238.035 23.1299C240.352 23.1299 242.957 24.1639 242.957 27.5411V28.0419H235.334ZM240.432 26.5877C240.289 25.1173 239.201 24.584 237.875 24.584C236.676 24.584 235.477 25.1988 235.334 26.5877H240.432Z" fill="#006CFF"/>
<mask id="mask0_22_6955" style="mask-type:alpha" maskUnits="userSpaceOnUse" x="99" y="17" width="158" height="18">
<path d="M99.741 17.3335H256.834V34.3621H99.741V17.3335Z" fill="white"/>
</mask>
<g mask="url(#mask0_22_6955)">
<path fill-rule="evenodd" clip-rule="evenodd" d="M246.629 31.5484H244.199V19.8828H246.629V31.5484Z" fill="#006CFF"/>
<path fill-rule="evenodd" clip-rule="evenodd" d="M250.361 29.0606C250.537 30.0946 251.097 30.4015 252.311 30.4015C253.718 30.4015 254.309 29.9977 254.309 29.4001C254.309 28.9954 254.021 28.721 253.143 28.6079L251.257 28.3489C248.491 27.9777 248.092 26.7499 248.092 25.7965C248.092 24.6013 249.051 23.1309 252.471 23.1309C254.389 23.1309 256.595 23.7122 256.595 25.8453H254.07C253.989 24.9082 253.35 24.585 252.104 24.585C251.192 24.585 250.618 24.9245 250.618 25.457C250.618 25.8934 250.793 26.1523 252.008 26.3461L254.357 26.7173C256.132 26.9925 256.835 27.9297 256.835 29.1249C256.835 30.579 255.78 31.8556 252.551 31.8556C249.339 31.8556 247.98 31.2898 247.772 29.0606H250.361Z" fill="#006CFF"/>
<path fill-rule="evenodd" clip-rule="evenodd" d="M125.237 22.1891H121.713V19.875H132.074V22.1891H128.471V31.5638H125.237V22.1891Z" fill="#006CFF"/>
<path fill-rule="evenodd" clip-rule="evenodd" d="M138.404 27.0633L136.914 22.1565H136.866L135.262 27.0633H138.404ZM135.087 19.875H138.995L143.56 31.5638H139.942L139.14 29.2145H134.511L133.727 31.5638H130.523L135.087 19.875Z" fill="#006CFF"/>
<path fill-rule="evenodd" clip-rule="evenodd" d="M144.812 19.875H148.063V29.2651H153.251V31.5638H144.812V19.875Z" fill="#006CFF"/>
<path fill-rule="evenodd" clip-rule="evenodd" d="M154.601 19.875H157.85V29.2651H163.04V31.5638H154.601V19.875Z" fill="#006CFF"/>
<path fill-rule="evenodd" clip-rule="evenodd" d="M164.275 31.5638H167.575V19.875H164.275V31.5638Z" fill="#006CFF"/>
<path fill-rule="evenodd" clip-rule="evenodd" d="M169.722 19.875H174.141L178.05 28.5843L178.018 19.875H180.821V31.5638H176.496L172.509 22.4806L172.541 31.5638H169.722V19.875Z" fill="#006CFF"/>
<path fill-rule="evenodd" clip-rule="evenodd" d="M183.21 19.875H186.462V25.0065L190.162 19.875H193.956L189.969 25.0219L194.278 31.5638H190.305L186.462 25.346V31.5638H183.21V19.875Z" fill="#006CFF"/>
<path fill-rule="evenodd" clip-rule="evenodd" d="M113.058 31.0068C113.051 31.0068 113.048 31.0026 113.045 31.0026C113.001 31.0026 112.961 31.0163 112.927 31.0326C112.023 31.1697 111.086 30.8062 110.443 29.9651L105.843 23.3967C104.845 22.0309 103.079 21.8791 101.904 23.0666L99.898 25.0917L99.7708 25.2238C99.753 25.2606 99.7411 25.3009 99.7411 25.3455C99.7411 25.4947 99.8581 25.6139 100.007 25.6216C100.048 25.613 100.09 25.6036 100.132 25.5959C101.034 25.4621 101.971 25.8248 102.61 26.6642L107.212 33.2326C108.212 34.5976 109.975 34.7485 111.152 33.561L113.147 31.5436L113.3 31.3901C113.313 31.3558 113.322 31.3206 113.322 31.2846C113.322 31.132 113.204 31.0154 113.058 31.0068Z" fill="#006CFF"/>
<path fill-rule="evenodd" clip-rule="evenodd" d="M104.879 20.6689C105.812 20.4777 106.802 20.8292 107.468 21.7046L111.847 27.919C111.882 27.9644 111.92 28.0107 111.961 28.0536C112.351 28.4454 112.981 28.4454 113.373 28.0536C113.383 28.0407 117.505 23.8729 118.518 22.8509C118.564 22.8072 118.593 22.7763 118.624 22.7438C118.648 22.7 118.666 22.6529 118.666 22.598C118.666 22.5586 118.66 22.52 118.644 22.4848L118.576 22.3854L116.485 19.3939L116.395 19.2653C116.348 19.2276 116.291 19.2002 116.226 19.2002C116.175 19.2002 116.133 19.2182 116.093 19.2413L115.991 19.3434L113.262 22.1007L110.679 18.4577C109.689 17.1004 107.934 16.9512 106.767 18.1302L104.679 20.2428L104.674 20.2462C104.63 20.2916 104.602 20.3559 104.602 20.4228C104.602 20.5609 104.637 20.6414 104.851 20.6775L104.879 20.6689Z" fill="#006CFF"/>
<path fill-rule="evenodd" clip-rule="evenodd" d="M201.239 19.8828H203.829V24.6327H210.109V19.8828H212.699V31.5484H210.109V26.5396H203.829V31.5484H201.239V19.8828Z" fill="#006CFF"/>
</g>
<path d="M48.0701 19.3553C47.7227 19.8888 47.3447 20.1556 46.9348 20.1556H43.7864V30.7984C43.7864 31.4425 43.6124 32.0313 43.2659 32.5638C42.9185 33.0986 42.5392 33.3657 42.1293 33.3657C41.7185 33.3657 41.3086 33.0599 40.8987 32.4467C40.63 32.0225 40.4966 31.7014 40.4966 31.4812V20.1556H37.2533C36.8424 20.1556 36.4325 19.8488 36.0226 19.2382C35.7542 18.814 35.6205 18.4919 35.6205 18.2727C35.6205 17.895 35.8678 17.5472 36.3658 17.2252C36.8629 16.9031 37.4029 16.7421 37.9872 16.7421H47.6674C48.2832 16.7421 48.5916 17.0251 48.5916 17.5892C48.5916 18.234 48.4175 18.8221 48.0701 19.3556V19.3553ZM55.2009 21.8394C56.046 22.3345 56.6957 22.989 57.1543 23.8062C57.6114 24.6217 57.8407 25.5166 57.8407 26.4893C57.8407 26.9916 57.71 27.4438 57.4504 27.8436C57.1901 28.244 56.9016 28.4441 56.587 28.4441H49.3456C49.5187 29.1819 49.897 29.7743 50.481 30.2222C51.0649 30.6689 51.7666 30.8924 52.5864 30.8924C53.2819 30.8924 54.1088 30.6578 55.0711 30.1868C55.5135 29.9665 55.9234 29.8566 56.3024 29.8566C56.8072 29.8566 57.0603 30.085 57.0603 30.5404C57.0603 30.949 56.9692 31.3397 56.7877 31.7167C56.6055 32.0947 56.3739 32.368 56.0899 32.5404C55.5532 32.8706 54.9572 33.1259 54.3024 33.3058C53.667 33.484 53.0104 33.5755 52.3505 33.5778C51.2142 33.5778 50.1765 33.2785 49.2389 32.6819C48.2994 32.0856 47.5708 31.3162 47.0496 30.3745C46.5291 29.4327 46.2689 28.4285 46.2689 27.3615C46.2689 26.1679 46.5529 25.0885 47.1205 24.1234C47.6888 23.1582 48.4299 22.4129 49.3456 21.8862C50.2598 21.3602 51.2617 21.0973 52.3505 21.0973C53.4071 21.0973 54.3577 21.3449 55.2012 21.839L55.2009 21.8394ZM54.9302 26.0661C54.8977 25.3911 54.6303 24.8257 54.1251 24.3712C53.6202 23.9145 53.0054 23.6881 52.2796 23.6881C51.5216 23.6881 50.8752 23.9041 50.3391 24.3355C49.8024 24.7675 49.4715 25.3436 49.3453 26.0661H54.9302ZM63.3307 30.4015C63.5828 30.5114 63.7087 30.7307 63.7087 31.0602C63.7087 31.6412 63.5509 32.1712 63.2353 32.6497C62.9188 33.1295 62.5805 33.3689 62.2181 33.3689C61.5079 33.3689 60.8921 33.0898 60.3726 32.5322C59.8511 31.9753 59.5909 31.3188 59.5909 30.5664V18.0603C59.5909 17.7154 59.8316 17.3862 60.3131 17.0713C60.7939 16.7574 61.3102 16.6012 61.8625 16.6012C62.4471 16.6012 62.7392 16.8673 62.7392 17.4009V29.5524C62.7392 29.7574 62.7815 29.9272 62.8694 30.0599C62.9556 30.1926 63.1091 30.3068 63.3303 30.4015H63.3307ZM67.71 21.3101C68.2945 21.3101 68.5867 21.5762 68.5867 22.1103V30.8924C68.5867 31.3162 68.5027 31.7252 68.3375 32.1172C68.1716 32.5098 67.9673 32.8166 67.7226 33.0365C67.477 33.2557 67.237 33.3657 66.9992 33.3657C66.6361 33.3657 66.2412 33.0671 65.8147 32.4711C65.5623 32.0622 65.436 31.7574 65.436 31.5524V22.7691C65.436 22.4243 65.6768 22.0951 66.1582 21.7802C66.64 21.4662 67.1563 21.3101 67.71 21.3101ZM67.801 16.153C68.4624 16.153 68.7932 16.4516 68.7932 17.0476C68.7932 17.518 68.7021 17.9701 68.5209 18.4015C68.3398 18.8335 68.1114 19.1748 67.8362 19.4259C67.559 19.6774 67.2796 19.8029 66.9959 19.8029C66.5863 19.8029 66.1605 19.4815 65.7204 18.8374C65.4198 18.382 65.2701 18.0293 65.2701 17.7776C65.2701 17.3859 65.5382 17.0163 66.0737 16.6709C66.6091 16.326 67.1862 16.153 67.801 16.153ZM80.6751 21.3101C81.259 21.3101 81.5502 21.5762 81.5502 22.1103V30.8924C81.5502 31.3162 81.4679 31.7252 81.303 32.1172C81.1371 32.5098 80.9321 32.8166 80.6872 33.0365C80.4425 33.2557 80.2024 33.3657 79.965 33.3657C79.6023 33.3657 79.208 33.0671 78.7825 32.4711C78.625 32.22 78.5144 31.9994 78.4507 31.8114C78.3248 32.1568 78.1546 32.4555 77.9416 32.7056C77.7295 32.9581 77.505 33.122 77.2675 33.2008C76.9241 33.3124 76.5649 33.3681 76.2038 33.3657C75.0675 33.3657 74.0372 33.0827 73.115 32.5179C72.1921 31.9522 71.4738 31.2112 70.9614 30.2918C70.4484 29.3745 70.1921 28.3735 70.1921 27.2909C70.1921 26.1282 70.4839 25.069 71.0678 24.112C71.6511 23.1539 72.409 22.4129 73.3401 21.8862C74.255 21.3643 75.291 21.0923 76.3443 21.0973C77.26 21.0973 78.1514 21.3491 79.0193 21.8514C79.5707 21.4903 80.1231 21.3101 80.6751 21.3101ZM78.4071 24.5118C77.8225 24.1826 77.1676 24.0173 76.4416 24.0173C75.5414 24.0173 74.787 24.3192 74.18 24.9236C73.573 25.528 73.2688 26.286 73.2688 27.1956C73.2688 28.1064 73.573 28.8761 74.18 29.503C74.787 30.1318 75.5326 30.4457 76.4172 30.4457C77.1276 30.4457 77.7916 30.2492 78.4071 29.8569V24.5118ZM18.5363 26.7727C25.131 23.6204 30.1147 18.7948 30.3554 14.9578C30.388 15.2896 30.4052 15.6367 30.4052 15.9984C30.4052 18.5931 30.0864 21.0511 29.5285 23.3345C28.172 26.5079 25.2305 29.4861 21.1193 31.8592C14.1977 35.8546 8.79821 36.8917 5.52333 33.9945C4.11475 32.3494 2.87597 30.5153 1.95145 28.6982C4.6141 31.5986 10.5825 30.5752 18.5363 26.7723V26.7727ZM17.6092 24.0537C9.76861 27.8163 3.05912 29.0475 0.863941 26.1494C0.452426 24.9373 0.223083 23.7795 0.223083 22.7453C0.223083 14.6933 12.0334 8.38232 21.657 8.38232C24.9036 8.38232 27.9303 9.36053 29.4267 11.9327C30.3385 15.3283 25.1124 20.4526 17.6092 24.0537ZM16.9742 35.4662C23.5428 32.8237 27.0858 29.0703 28.7364 26.0127C25.8073 34.4782 19.616 39.9372 15.0942 39.9372C12.5132 39.9372 9.56887 38.1337 6.98462 35.5697L7.00902 35.5892C8.67785 36.9168 11.6983 37.5957 16.9742 35.4662Z" fill="#006CFF"/>
<path d="M299.489 29.3146H297.107L298.298 25.394L299.489 29.3146Z" fill="#006CFF"/>
<path fill-rule="evenodd" clip-rule="evenodd" d="M328.983 0.867676H283.164V46.6869H286.793V37.9157H283.562V34.7064H293.653V37.9157H290.441V46.6869H294.493V34.7064H303.628V37.9157H298.14V39.1176H303.502V42.3267H298.14V43.6571H303.628V46.6869H308.406C305.922 45.8315 304.243 43.6622 304.243 40.7963C304.243 37.0392 307.096 34.5064 310.868 34.5064C314.028 34.5064 315.616 36.3664 316.34 38.0428L313.198 39.5182C312.891 38.5713 311.951 37.7519 310.869 37.7519H310.868C309.118 37.7519 307.945 39.1016 307.945 40.7969C307.945 42.4922 309.118 43.8409 310.868 43.8409C311.951 43.8409 312.891 43.0202 313.198 42.0727L316.34 43.5298C315.831 44.7021 314.851 46.0367 313.154 46.6869H316.975V34.7064H320.623V39.0086H324.938V34.7064H328.584V46.6869H328.983V0.867676ZM283.562 24.9937H286.793V33.945H290.441V24.9937H293.653V21.7851H283.562V24.9937ZM296.004 21.7851L291.564 33.9452H295.697L296.131 32.523H300.464L300.898 33.9452H305.032L300.59 21.7851H296.004ZM309.34 30.7368H313.906L313.905 33.945H305.692V21.7851H309.34V30.7368Z" fill="#006CFF"/>
<path d="M324.938 46.6875V42.2183H320.622V46.6875H324.938Z" fill="#006CFF"/>
<path d="M375.718 18.9797L371.616 22.0428C369.679 20.3765 367.177 20.0499 365.805 20.0499C364.434 20.0499 362.951 20.4478 362.734 21.4483C362.515 22.4186 363.418 23.1733 364.967 23.5934C366.733 24.0691 368.342 24.4908 370.82 25.1979C374.505 26.2491 377.024 27.8441 377.024 31.5399C377.024 36.6357 372.501 39.2771 366.441 39.2771C360.381 39.2771 356.253 36.1204 355.026 34.6475L359.362 31.4051C362.408 34.0608 364.526 34.435 366.297 34.435C368.328 34.435 370.227 33.999 370.471 32.8495C370.67 31.9268 369.904 31.1927 368.174 30.7884C366.216 30.3365 364.564 29.9734 362.72 29.4883C357.722 28.1771 356.313 25.2709 356.313 22.6612C356.313 19.0669 359.658 15.3758 365.777 15.3758C372.051 15.3758 375.724 18.9701 375.724 18.9701L375.718 18.9797ZM401.869 15.7357H383.577V38.6001H402.199V33.3299H390V29.6484H398.403V24.6066H390V20.9599H401.864L401.869 15.7357ZM378.844 43.875H380.271V10.4624H378.844V43.875ZM404.601 43.875H406.028V10.4624H404.601V43.875ZM409.325 38.6001H424.013C427.941 38.6001 431.123 36.233 431.123 32.4421C431.123 29.4851 429.187 27.527 426.474 26.6598C426.387 26.641 426.299 26.6299 426.211 26.6265C426.3 26.6183 426.388 26.6029 426.474 26.5805C428.028 25.9653 429.75 24.3275 429.75 21.5386C429.75 18.0014 426.62 15.7453 422.758 15.7453H409.325V38.6001ZM415.778 20.4986H420.909C422.09 20.4986 423.046 21.4308 423.046 22.5026C423.046 23.5744 422.095 24.5098 420.909 24.5098H415.778V20.4986ZM422.054 33.5202H415.778V29.3519H422.054C422.592 29.3729 423.102 29.6016 423.475 29.99C423.849 30.3784 424.057 30.8964 424.057 31.4353C424.057 31.9741 423.849 32.4921 423.475 32.8805C423.102 33.2689 422.592 33.4976 422.054 33.5186V33.5202Z" fill="#006CFF"/>
</svg>
