<svg width="1007" height="478" viewBox="0 0 1007 478" fill="none" xmlns="http://www.w3.org/2000/svg">
<path d="M8.89879 57.2642L8.11479 57.9612L8.42979 57.9182L7.47479 63.6982L7.49979 65.1252L5.66779 76.4691L3.9838 95.4171L3.53479 107.017L4.48579 121.85L6.2618 131.158L8.06779 138.502L9.66479 147.362L9.85779 150.417L11.0888 157.964L12.4688 164.923L13.2508 167.325L14.1898 176.218L16.3228 185.273L18.4368 203.902L22.1838 221.557L23.5148 226.54L25.9658 238.93L26.9798 254.52L27.5118 256.576L27.3828 263.233L27.8418 269.539L29.7248 285.178L32.0708 297.396L32.8128 302.373L32.8878 305.134L34.0918 310.375L35.7718 319.88L35.8428 321.797L36.8768 326.17L37.9078 333.954L40.1118 344.905L40.5508 350.399L42.7088 360.201L43.7548 371.367L43.4568 372.671L43.6758 374.972L43.2678 387.805L43.3148 393.449L43.6408 394.325L43.2498 396.277L44.3718 400.875L45.6078 402.253" stroke="black" stroke-width="6" stroke-linejoin="round"/>
<path d="M12.4287 54.4252L12.5377 53.9732L13.0767 53.7452L19.9877 52.2662L20.8537 51.8302L23.9037 51.7602L34.2617 50.5792L53.6687 47.6332L68.3807 47.0422L86.2517 47.5532L99.3907 46.6222L117.629 46.0692L132.447 45.0692L153.45 44.4602L177.517 43.2592L198.732 43.4892L215.698 42.8822L220.319 43.3212L236.463 42.4862L245.078 41.5352L251.568 41.2662L254.624 40.6252L273.863 39.1972L289.189 37.2192L299.447 36.2912L307.137 34.4092L328.126 33.4952L330.389 33.8142L334.135 33.7122L335.406 34.1222L338.251 34.2652L341.205 34.1102L345.069 34.6472L350.645 34.4682L353.466 34.0442L354.087 34.3312L355.871 33.6782L357.934 33.7982L361.66 33.0462L363.407 33.0032L364.273 33.4642L365.513 33.2012L367.698 33.5232L371.558 33.1132" stroke="black" stroke-width="6" stroke-linejoin="round"/>
<path d="M44.2488 407.986L43.7758 407.242L44.0328 407.066L44.3058 407.422L47.1248 407.326L51.8798 406.811L55.2958 405.93L56.7908 406.168L57.3908 405.727L61.7848 404.41L87.7897 400.447L121.234 398.203L125.202 398.187L135.186 397.294L149.429 395.77L153.232 395.044L173.693 392.959L180.027 391.822L188.145 391.076L192.086 391.163L203.949 389.829L245.66 388.132L250.497 388.23L252.845 388.602L260.219 388.355L265.771 389.207L282.933 390.25L304.698 390.406L313.174 389.736L316.492 389.247L318.093 388.508L319.78 388.58L326.774 387.716L339.819 385.569L347.056 384.725L349.604 383.877L354.543 383.776L359.082 382.785L364.027 382.415L367.886 381.093L368.421 381.267L374.7 380.109L379.377 379.671L383.268 379.474L387.586 379.741L390.006 380.207L395.965 380.131L398.753 380.582L400.15 381.125L403.93 380.528L406.717 380.716L407.85 381.129L410.828 380.616L415.861 380.522L424.203 379.702L427.557 379.105L428.971 378.509L434.116 378.211L444.879 375.706L445.911 375.724L449.706 374.44L452.85 374.124L460.784 371.994L466.376 371.365L467.424 371.815L470.86 370.874L474.574 371.232L476.9 371.066L478.031 370.477L481.656 371.041L492.001 370.246L502.595 369.015L506.599 369.263L509.43 368.487L510.588 368.555L513.942 367.28L516.381 367.035L517.649 367.23L522.139 366.126L525.709 366.576L531.135 366.241L537.313 365.409L539.772 365.292L540.857 365.564L544.818 364.411L546.853 364.304L547.673 364.662L550.015 363.679L564.879 360.937L567.744 360.805L570.94 360.167L573.394 360.15L575.743 359.558L578.007 359.513L578.789 359.016L580.292 359.048L580.988 359.571L582.692 358.864L585.047 359.088L586.714 358.874L588.769 359.197L589.437 359.012L589.696 359.267L590.29 358.911L590.668 358.134L591.545 358.804L592.579 358.223L595.134 357.903L595.898 357.496" stroke="black" stroke-width="6" stroke-linejoin="round"/>
<path d="M20.1747 54.3641L38.1597 49.3581L47.7297 47.5941L52.9557 47.1771L59.2627 47.4741L62.9047 46.8931L66.8197 46.9631L90.3847 44.4171L100.116 44.1701L103.665 44.6641L108.034 44.5341L111.715 43.8311L119.798 42.9821L135.689 40.1981L149.102 38.8241L153.699 38.7121L156.204 39.0341L163.482 38.6691L172.182 39.4061L179.455 39.3481L199.56 39.9591L205.521 39.8191L207.766 39.4441L226.802 39.2521L249.416 40.1351L255.856 39.5561L281.015 35.7431L285.798 35.4251L293.166 34.0961L310.321 33.7281L325.504 32.9451L333.758 32.0191L342.147 31.7841L355.151 30.8011L367.733 31.1021L400.372 28.5171L406.821 28.4181L412.106 27.5101L424.215 26.9301L431.031 27.0701L446.046 25.9841L458.489 25.4691L473.552 24.0811L479.494 23.2131L484.429 23.0181L507.158 20.8061L511.665 20.8401L514.616 20.4591L516.193 19.7861L539.711 16.9941L547.582 16.6611L552.844 15.6621L554.265 16.0031L556.112 15.5821L559.359 15.8641L562.159 15.4341L563.264 15.8191L564.372 15.5311L565.427 15.6321L565.806 15.9811L566.827 15.7801L566.493 15.8081L566.594 15.5371L566.617 15.7491" stroke="black" stroke-width="6" stroke-linejoin="round"/>
<path d="M569.754 4.98814L569.623 3.30615L569.869 3.86716L570.619 12.2422L572.9 21.5482L577.823 46.8062L578.97 56.1961L579.651 71.3011L581.11 79.8712L584.135 107.451L584.375 114.314L583.921 125.022L583.951 136.289L583.454 144.121L583.491 151.67L585.159 171.844L586.202 191.248L587.012 199.851L587.485 201.175L588.899 210.047L590.638 229.842L593.554 248.417L594.201 254.722L595.798 262.691L596.19 267.261L598.992 285.677L598.815 291.962L599.482 298.654L599.89 314.791L598.637 326.666L599.079 333.054L599.017 337.455L599.572 340.188L599.759 343.637L599.394 346.602L599.002 347.801L598.727 347.459" stroke="black" stroke-width="6" stroke-linejoin="round"/>
<path d="M123.66 127.741L121.538 129.033L119.077 132.055L117.791 134.278L115.966 135.852L114.482 139.151L112.958 144.058L112.447 146.64L112.131 153.741L112.783 159.507L112.642 160.959L114.069 167.483L115.784 170.21L118.075 175.483L120.995 184.389L124.205 192.341L125.839 198.726L130.508 207.707L132.32 212.212L134.034 214.743L135.182 217.265L135.808 217.809L137.375 223.229L138.246 224.575L139.131 228.959L140.582 233.272L141.844 236.662L142.759 237.462L143.67 240.283L144.168 244.514L145.688 250.806L146.259 254.875L147.196 257.078L150.51 268.912L152.98 275.801L155.146 279.553L158.132 286.469L159.478 290.936L162.184 297.28L164.77 307.125L166.252 316.043L166.662 316.568L166.964 318.643L168.747 324.197L169.774 326.313L170.074 326.605L170.104 326.335L170.016 327.021L170.22 326.754" stroke="black" stroke-width="4.74622" stroke-linejoin="round"/>
<path d="M170.565 327.83L169.802 328.344L170.097 327.852L170.833 328.42L178.191 324.39L190.072 320.872L191.086 320.899L194.774 319.211L198.082 318.337L201.062 316.773L207.435 314.546L210.758 312.879L212.461 312.7L213.906 311.697L215.349 311.661L217.934 310.229L224.999 308.032L226.012 307.287L228.04 307.092L232.762 305.378L233.722 305.374L233.864 305.058L234.498 305.291L236.874 303.37L238.084 302.974L237.839 302.634L237.872 303.035" stroke="black" stroke-width="4.74622" stroke-linejoin="round"/>
<path d="M143.362 121.039L143.87 121.499L144.112 121.283L144.106 121.794L144.121 121.272L145.691 119.539L149.144 117.667L154.151 117.496L154.837 118.113L155.514 117.865L156.129 118.418L157.605 118.464L159.724 119.208L159.974 119.633L161.458 120.219L161.944 121.181L163.295 121.393L168.211 126.152L170.4 129.103L170.991 129.289L174.307 134.388L174.647 135.515L175.893 136.446L176.487 137.9L179.716 142.78L179.956 143.844L180.744 144.087L183.561 148.046L184.05 148.488L184.304 148.313L185.88 151.023L189.959 161.408L192.922 167.289L193.483 169.618L194.005 170.183L196.856 177.46L197.028 177.234L200.523 190.38L200.653 192.352L201.261 195.075L201.688 195.569L202.59 200.396L204.331 206.135L206.325 210.797L207.355 212.215L210.26 221.781L211.623 223.96L213.011 227.433L213.523 227.749L216.104 234.877L216.754 235.38L218.007 238.293L220.344 244.953L222.281 254.466L225.261 263.486L225.923 267.687L226.486 269.112L226.501 270.741L227.211 272.024L227.383 274.5L228.391 276.8L228.337 277.668L229.516 281.62L230.494 283.379L231.506 286.519L231.843 289.37L233.344 292.893L234.328 301.683" stroke="black" stroke-width="4.74622" stroke-linejoin="round"/>
<path d="M122.692 128.27L122.701 127.703L123.523 127.984L124.341 127.178L125.864 126.625L137.321 123.926L138.397 124.271L139.09 123.763L142.258 124.052L142.856 123.762L143.032 124.013L143.464 123.509L143.586 123.81L144.41 123.776L144.312 123.2L144.351 123.525" stroke="black" stroke-width="4.74622" stroke-linejoin="round"/>
<path d="M120.998 126.895L121.786 126.905L121.583 127.421L121.565 126.739L120.684 125.33L118.904 118.99L119.167 119.413L118.909 119.385L118.709 120.243L118.86 121.876L120.025 123.321L120.16 122.711L120.21 123.18L120.114 122.891L120.138 123.193L123.577 122.029L125.719 120.908L125.775 120.557L125.936 120.989L125.917 120.579L127.366 120.672L128.453 119.664L130.345 119.369L130.942 118.787L134.013 118.336L134.69 117.891L136.744 117.814L140.976 115.883L141.629 116.329L143.605 115.126L146.057 114.741L146.033 114.482L145.88 115.04L146.059 114.371L145.942 115.168L146.996 117.646L147.378 123.195L147.188 123.994L147.022 123.716L147.324 123.466" stroke="black" stroke-width="4.74622" stroke-linejoin="round"/>
<path d="M120.028 118.936L115.69 120.583L114.858 120.508L114.065 121.132L112.651 121.177L110.594 121.994L111.27 122.216L115.593 120.127L119.122 118.88L119.814 118.981L119.669 118.763L119.357 119.449L118.782 119.371L118.179 119.969L117.611 119.733L112.929 121.925L112.147 121.782L112.335 121.44L112.678 121.551" stroke="black" stroke-width="4.74622" stroke-linejoin="round"/>
<path d="M113.585 119.281L113.786 120.708L113.839 119.878L113.841 120.177L118.058 118.024L122.373 116.948L122.686 116.479L124.298 116.707L126.626 115.842L131.125 115.14L143.294 110.552L143.95 110.706L146.21 109.775L148.207 109.593L150.047 108.592L150.224 108.921L150.535 108.406L152.388 107.465L154.5 106.54L154.388 106.845L154.384 106.406L154.185 106.914L153.25 106.801L152.745 107.3L151.365 107.328L148.746 108.759L145.413 109.84L144.241 110.793L143.488 110.637L138.987 112.712L135.15 113.89L133.67 114.784L132.312 114.975L128.804 117.013L120.333 120.207" stroke="black" stroke-width="4.74622" stroke-linejoin="round"/>
<path d="M112.272 118.435L113.751 121.464L112.683 117.802L111.231 115.817L109.707 112.878L109.263 111.3L109.519 111.35L109.258 111.42L109.577 111.665L109.77 113.489L112.724 118.864L113.04 121.049L113.345 121.166L113.37 120.564L112.575 115.711L111 111.647L111.083 111.032L110.849 110.787L110.84 111.265L111.721 112.644" stroke="black" stroke-width="4.74622" stroke-linejoin="round"/>
<path d="M108.499 107.72L109.182 106.809L112.21 107.076L116.955 106.472L118.443 105.938L119.457 106.081L124.058 104.543L124.865 104.832L133.532 101.899L134.402 102.181L136.445 101.212L139.791 100.87L141.366 100.137L141.633 100.359L146.415 98.5801L148.46 97.4271L148.314 97.8621L148.348 97.4131L149.409 101.75L149.459 104.411L149.793 104.572L150.337 106.514L150.647 106.509L150.471 106.805L150.525 106.221" stroke="black" stroke-width="4.74622" stroke-linejoin="round"/>
<path d="M129.196 210.336L131.83 209.058L133.032 209.113L134.68 208.099L135.923 208.024L136.708 208.498L140.336 207.29L146.31 206.114L151.725 203.899L156.114 202.637L157.777 202.753L169.101 199.384L170.508 199.439L171.823 198.556L173.05 198.402L179.012 195.771L180.596 195.572L181.727 194.69L188.56 192.083L189.855 190.698L190.29 191.057L191.514 190.7L192.046 190.201L193.271 189.929L193.495 189.429L193.791 189.838L196.104 188.167L196.169 188.592L196.288 187.83L195.834 188.191" stroke="black" stroke-width="4.74622" stroke-linejoin="round"/>
<path d="M147.572 260.499L148.851 260.601L149.122 261.029L149.398 260.61L150.784 260.395L153.65 258.968L157.767 258.085L158.595 257.483L163.408 256.938L164.326 256.317L165.353 256.586L170.419 253.78L173.08 252.921L173.93 252.29L175.4 251.819L175.678 252.045L176.573 251.333L177.323 251.572L182.878 249.312L183.34 249.45L187.071 247.04L187.706 247.042L189.449 245.604L191.995 244.3L192.258 244.451L192.918 243.318L196.984 241.679L200.079 239.499L200.675 239.514L201.034 238.884L203.081 237.486L204.314 237.262L205.581 235.789L208.766 233.589L209.012 232.992L209.342 233.199L209.897 232.534L211.591 231.669L212.332 230.712L212.553 231.077L212.268 230.642" stroke="black" stroke-width="4.74622" stroke-linejoin="round"/>
<path d="M155.165 221.885L154.724 221.225L154.277 221.396L153.913 220.882L154.098 221.953L156.24 221.367L159.594 217.783L161.882 216.161L163.687 213.904L166.036 212.634L167.3 212.614L168.196 215.581L170.173 218.639L172.89 218.907L173.346 218.424L174.854 218.517L175.64 218.032L182.279 212.447L183.193 212.321L183.786 211.658L184.403 213.325L184.359 214.986L184.75 216.057L186.813 216.229L192.081 212.441L194.38 210.09L195.413 209.686L195.685 209.908L196.652 208.897" stroke="black" stroke-width="2.37311" stroke-linejoin="round"/>
<path d="M161.695 234.184L160.342 234.737L159.945 238.513L160.633 238.773L162.433 238.356L167.611 235.869L170.702 233.887L174.595 232.573L176.736 233.294L178.818 235.938L181.171 235.765L187.295 231.434L188.272 230.102L188.143 231.328L188.879 232.858L189.492 232.422L190.196 233.034L190.761 232.488L197.104 229.76L200.741 226.272" stroke="black" stroke-width="2.37311" stroke-linejoin="round"/>
<path d="M327.265 75.6381L327.433 75.1901L327.042 74.6201L325.407 75.0111L320.523 77.9061L315.518 83.0071L312.041 87.2171L310.423 89.7941L309.083 91.0251L306.828 95.2451L305.736 100.533L305.813 102.597L307.025 105.867L308.345 108.145L309.563 109.516L310.572 110.41L311.35 110.414L312.148 111.474L312.636 111.67L312.957 111.416L313.79 112.383L315.613 113.062L316.52 112.949L317.44 113.517L318.79 113.392L320.843 114L321.349 113.751L323.636 114.068L326.873 113.746L327.182 114.074L328.738 114.042L332.294 113.198L333.514 113.191L334.634 112.334L335.673 112.394L337.463 111.2L338.449 111.228L339.615 110.391L343.275 108.623L343.439 108.787L343.719 108.032L343.752 108.608L343.754 108.097" stroke="black" stroke-width="4" stroke-linejoin="round"/>
<path d="M291.944 103.134L290.767 103.687L291.209 103.32L294.005 102.914L297.533 101.69L298.285 101.751L311.365 95.7781L313.906 95.0801L317.122 93.4001L318.495 92.9781L318.73 93.1571L318.998 92.7981L317.922 93.8371" stroke="black" stroke-width="4" stroke-linejoin="round"/>
<path d="M296.166 113.428L295.733 113.464L295.763 113.69L296.621 113.542L302.794 111.471L309.766 107.942L312.213 107.173L314.869 105.676L320.502 104.057L321.3 103.401L323.12 102.93L323.018 103.651" stroke="black" stroke-width="4" stroke-linejoin="round"/>
<path d="M370.622 103.714L370.022 103.892L369.887 100.059L371.731 91.1832L373.941 77.3862L374.943 73.1372L373.801 73.7312L371.613 75.7512L365.538 85.8052L360.181 92.5862L356.841 95.8162L356.095 97.2242L355.389 97.7772L357.019 96.5152" stroke="black" stroke-width="4" stroke-linejoin="round"/>
<path d="M384.782 99.7921L383.563 105.555L382.218 108.8L380.323 111.619L377.985 114.149L376.409 115.298L375.588 115.66L375.601 115.385" stroke="black" stroke-width="4" stroke-linejoin="round"/>
<path d="M415.899 73.8562L415.699 71.6392L414.75 71.2082L414.254 71.3682L413.295 70.8212L412.381 70.9922L410.526 72.0632L408.036 74.7092L406.317 77.3952L404.979 80.6132L404.944 82.6852L405.299 83.6062L406.525 84.7512L407.729 85.0862L409.41 84.9182L412.497 83.0812L413.748 81.8992L416.505 78.6212L417.481 76.6722L417.872 81.6622L419.856 87.6772L420.613 91.3862L420.731 93.5512L420.135 95.6292L417.679 98.1182L412.967 100.237L411.986 100.95L409.349 101.571L406.214 101.624L405.042 101.017L404.898 101.192L405.146 99.6592" stroke="black" stroke-width="4" stroke-linejoin="round"/>
<path d="M443.864 71.6881L444.332 70.9801L445.561 70.6691L446.49 69.6681L446.661 68.9731L446.541 69.1741L445.291 68.6931L442.595 68.9671L441.798 68.6721L437.253 71.6891L434.961 75.0401L434.272 77.2631L434.186 79.6741L434.877 81.2401L435.646 81.6391L438.412 81.8441L440.149 81.1461L443.592 78.2711L444.996 75.8461L445.199 74.2561L446.053 78.0011L447.183 87.6451L447.161 90.6841L446.433 94.4071L445.045 97.5401L443.833 98.7561L443.16 98.9411L440.401 101.87L432.636 105.728L430.932 105.93L430.923 105.5" stroke="black" stroke-width="4" stroke-linejoin="round"/>
<path d="M320.298 165.038L319.881 164.191L319.617 167.86L320.359 168.294L321.367 167.93L322.722 166.872L323.996 165.022L324.36 163.915L324.183 162.371L322.136 163.065L320.621 164.965L320.079 166.265L320.304 169.125L321.324 170.011L322.188 170.144L323.174 169.811L324.264 170.052L326.46 168.275L327.077 166.867L327.053 165.701L326.555 164.586L325.167 163.448L324.512 163.404L322.321 164.527L321.246 167.092L321.027 169.12L321.644 170.388L322.707 171.001L324.446 170.988L324.745 171.274L325.507 170.218L326.598 170.097L327.217 169.612L328.352 168.089L328.068 166.148L327.47 164.803L326.526 163.849L324.829 163.699L322.641 166.561L321.707 168.086L321.006 170.804L321.29 172.431L322.937 173.471L326.916 171.445L328.831 169.445L329.665 167.78L329.791 166.509L329.036 165.254L328.203 165.236L327.266 164.651L325.038 165.945L324.638 166.764L325.178 167.744L326.829 167.933" stroke="black" stroke-width="4.77964" stroke-linejoin="round"/>
<path d="M361.629 158.329L360.895 159.603L361.214 160.375L362.715 160.126L368.966 154.804L372.511 153.294L374.025 153.414L374.688 155.148L376.029 156.239L376.875 156.524L379.044 156.225L382.963 154.005L385.238 153.143L385.977 152.379L392.126 149.613L393.585 149.996L394.883 151.825L397.082 153.636L398.575 154.25H400.132L403.696 153.133L406.252 151.85L415.633 146.087L417.956 144.094L420.759 143.128L421.344 144.365L421.493 148.057L422.258 148.434L423.752 148.14L429.001 145.614L435.925 141.11L442.542 138.143L448.096 134.462L457.843 130.181" stroke="black" stroke-width="4.77964" stroke-linejoin="round"/>
<path d="M335.314 207.887L334.767 208.281L334.618 209.056L334.554 210.697L334.973 212.052L335.75 212.275L338.039 211.549L340.257 207.941L340.469 205.404L340.162 205.009L339.359 205.045L338.898 205.194L338.686 205.787L337.899 205.912L336.293 208.503L335.937 209.923L336.077 211.086L338.921 212.699L339.843 212.073L340.98 212.171L343.583 209.281L343.776 207.506L343.325 206.254L342.452 205.57L341.681 205.682L341.291 206.365L340.094 205.911L338.075 208.186L336.521 211.328L336.408 214.182L338.057 215.273L339.231 214.985L341.461 213.369L343.302 209.777L343.341 207.852L342.885 206.837L341.669 206.417L340.976 206.642L340.592 207.146L339.247 207.496L338.12 208.659L336.012 212.146L336.056 212.482L337.848 212.474L338.101 212.772L340.294 211.06L341.472 208.425L341.588 206.95L341.165 205.697L340.74 206.232L339.964 205.963L338.882 206.608L337.327 209.048L337.366 210.281L338.242 210.801" stroke="black" stroke-width="4.77964" stroke-linejoin="round"/>
<path d="M380.041 199.154L379.207 199.534L385.238 199.313L387.156 198.591L390.73 196.412L394.909 192.776L397.128 191.978L398.591 190.919L399.087 191.202L400.773 195.832L402.161 197.451L406.536 196.877L414.316 192.627L419.548 189.206L423.338 187.376L425.157 187.373L426.976 188.947L429.689 189.259L434.024 188.219L437.733 186.771L438.852 186.743L442.962 184.629L446.168 182.41L449.636 179.328L453.511 177.5L453.83 177.701L452.175 181.609L451.713 184.202L452.291 185.259L456.691 185.195L463.937 181.678L473.111 175.412" stroke="black" stroke-width="4.77964" stroke-linejoin="round"/>
<path d="M352.334 246.244L351.674 246.942L350.975 248.976L350.908 251.795L351.692 254.086L352.847 254.991L354.632 254.768L357.103 253.395L360.501 248.304L360.602 246.473L358.247 245.881L356.133 247.041L354.379 249.826L354.356 250.593L355.083 251.072L355.873 251.018L356.254 250.596L357.04 251.014L358.019 250.646L360.314 247.993L360.226 246.726L358.65 244.711L356.816 244.817L353.813 247.69L352.338 250.118L352.439 251.899L353.129 251.615L354.166 252.249L356.064 251.818L357.58 251.049L358.88 249.757L359.311 248.328L359.112 247.638L358.669 247.165L358.17 247.636L357.384 247.482L353.584 250.709L352.83 253.416L353.116 253.534L353.311 253.121L353.91 253.769L354.642 253.253L355.126 253.339L356.91 252.257L358.603 250.026L359.843 247.951L359.793 246.863L359.26 246.75L357.563 247.603L357.209 247.226L355.193 250.079L354.97 251.049L355.557 252.536L358.547 253.772" stroke="black" stroke-width="4.77964" stroke-linejoin="round"/>
<path d="M397.783 241.611L396.822 241.819L396.835 241.523L397.045 242.261L397.872 241.776L400.537 241.431L404.024 239.978L408.14 236.089L410.938 240.184L411.707 240.677L414.112 241.112L418.731 239.158L422.713 236.412L423.77 235.299L426.304 233.938L427.833 232.229L429.493 231.159L429.835 231.211L430.044 232.451L430.729 232.711L431.275 233.803L432.155 234.494L433.154 234.877L435.346 234.391L442.039 230.611L448.116 226.756L450.111 224.946L450.908 224.477L451.262 224.73L451.242 224.402L451.024 226.033L452.07 227.917L454.256 229.644L455.427 229.808L457.781 229.662L459.361 228.964L463.952 226.003L468.082 223.91L470.668 222.003L474.018 221.068L475.284 221.075L474.752 223.386L475.618 226.083L476.484 226.317L479.372 228.724L480.614 229.332L484.137 227.879L487.197 225.884" stroke="black" stroke-width="4.77964" stroke-linejoin="round"/>
<path d="M336.749 305.192L337.129 304.717L336.902 305.638L337.018 308.812L338.058 318.918L338.947 324.182L341.39 331.894L344.674 338.785L344.75 338.383L344.713 338.745L344.765 338.452L346.709 338.66L347.927 338.126L351.086 337.724L352.365 337.133L358.431 336.525L360.327 335.629L361.671 335.719L362.952 335.174L370.886 333.967L375.655 332.686L377.535 332.666L379.54 331.859L381.882 331.782L396.992 328.052L401.572 327.507L403.33 326.649L404.618 326.5L405.171 326.729L406.803 326.08L412.847 324.658L413.24 324.259L414.323 324.399L419.906 322.226L420.889 322.017L421.434 322.217L424.057 321.384L426.088 320.966L426.378 321.14L427.229 320.575L428.605 320.722L431.235 319.928L433.329 319.932L434.197 319.574L435.213 319.776L439.367 318.91L440.561 319.131L441.926 318.645L443.851 318.668L446.739 318.071L446.92 318.263L448.195 317.768L451.26 317.361L452.491 316.729L453.491 316.97L456.035 316.332L459.61 315.981L461.27 315.374L462.531 315.487L463.897 314.853L466.946 314.875L470.133 314.419L472.209 314.573L479.362 313.193L479.796 312.817L480.964 313.079L482.31 312.549L488.67 311.685L490.235 311.083" stroke="black" stroke-width="6" stroke-linejoin="round"/>
<path d="M336.905 319.57L336.831 316.994L336.267 314.217L336.972 309.099L336.87 306.496L335.511 299.104L334.082 296.808L333.466 295.01L333.533 291.412L333.587 291.626L334.1 291.278L337.944 290.746L348.244 289.657L350.423 288.663L352.424 288.149L353.263 288.286L355.479 287.357L370.746 282.99L381.7 280.377L383.914 280.404L386.619 279.56L388.901 279.464L402.675 276.93L403.507 277.001L408.503 275.362L410.547 275.291L412.874 274.381L421.922 272.187L427.53 271.341L430.278 270.62L432.677 270.462L435.432 269.322L445.199 266.809L455.073 264.52L459.954 263.736L461.859 262.801L465.692 262.304L467.206 261.721L472.184 261.341L480.51 258.665L482.76 258.384L485.084 257.536L490.729 257.143L491.264 256.714L492.876 256.353L493.06 256.769L492.982 256.514L492.763 256.666L494.873 259.372L496.692 264.737L497.511 270.43L497.766 282.142L499.571 288.435L500.054 293.998L500.954 298.278L502.035 301.084L504.094 309.881L504.662 310.654L505.421 312.983L505.263 312.601L505.335 313.266L505.309 312.918L503.133 312.904L502.566 312.526L500.391 313.152L498.245 312.888L487.983 315.013L484.981 316.105L482.433 316.555L478.729 317.993" stroke="black" stroke-width="6" stroke-linejoin="round"/>
<path d="M375.664 293.536L374.843 293.921L374.742 295.02L375.517 306.031L375.556 313.751L375.951 316.466L376.489 317.587" stroke="black" stroke-width="6" stroke-linejoin="round"/>
<path d="M376.458 293.604V292.368L377.42 291.596L381.144 290.514L387.534 289.69L390.401 290.57L391.358 291.755L391.883 293.565L391.789 294.635L391.321 295.337L389.114 297.114L386.138 298.551L384.092 299.993L382.226 300.302L379.645 301.445L380.479 301.19L381.508 301.548L383.064 301.313L385.466 302.061L390.544 302.867L393.742 303.898L395.32 304.869L396.573 306.135L397.726 307.618L398.27 309.36L397.981 311.442L396.428 315.234L394.916 317.335L392.771 319.469L388.385 320.567L381.521 321.519L378.731 321.102L378.107 321.405L378.451 320.99" stroke="black" stroke-width="6" stroke-linejoin="round"/>
<path d="M411.355 290.006L410.961 289.791L410.983 289.138L411.207 289.299L409.142 296.821L408.992 300.082L409.614 303.805L410.621 306.378L412.153 308.064L417.757 309.623L423.173 309.239L425.712 308.234L427.769 306.664L430.414 302.788L433.037 297.615L435.347 290.816L436.405 288.725L436.233 289.513L436.027 289.317L435.234 290.555" stroke="black" stroke-width="6" stroke-linejoin="round"/>
<path d="M446.822 276.133L446.294 275.937L446.487 275.714L446.637 276.196L447.562 276.094L450.142 276.983L454.335 279.626L455.528 280.964L457.118 281.239L459.449 282.625L460.013 283.625L461.253 284.781L462.009 286.693L462.779 287.169L462.711 287.448L462.749 286.933L462.621 287.357L462.954 287.574" stroke="black" stroke-width="6" stroke-linejoin="round"/>
<path d="M468.967 272.894L468.594 271.788L468.758 272.411L467.062 274.615L464.88 280.617L462.289 285.468L458.144 296.961L455.341 303.158L455.302 304.404L455.282 303.83L456.125 303.563" stroke="black" stroke-width="6" stroke-linejoin="round"/>
<path d="M199.17 108.089L201.275 105.006L206.531 98.6271L218.764 86.3982L225.594 79.0501L229.959 72.9941" stroke="black" stroke-width="2" stroke-linejoin="round"/>
<path d="M151.02 325.183L150.383 324.724L149.477 325.737L148.11 328.413L140.945 338.085L134.286 345.64L125.965 354.128L120.118 360.654" stroke="black" stroke-width="2" stroke-linejoin="round"/>
<path d="M211.967 121.723L212.851 122.077L213.21 121.915L213.424 121.41L228.267 114.076L237.245 110.048L249.86 103.659L256.459 99.7912L266.502 95.0872L268.533 94.6582" stroke="black" stroke-width="2" stroke-linejoin="round"/>
<path d="M125.95 312.824L125.778 312.509L124.255 312.892L123.68 313.709L119.492 317.333L107.326 326.009L91.1848 339.422L86.8568 343.41L84.2307 345.232L81.2968 348.103" stroke="black" stroke-width="2" stroke-linejoin="round"/>
<path d="M449.558 331.233L448.948 331.252L448.997 331.573L448.508 332.006L447.71 334.899L447.228 343.525L448.057 351.94L449.712 359.263L451.332 363.188L456.115 372.24L459.971 378.543L462.807 382.197L464.003 383.056L465.369 384.78L468.121 387.31L474.104 390.691L488.716 395.972L498.633 400L500.708 401.252L505.36 403.148L511.331 406.371L517.71 408.564L540.076 412.083L542.7 412.649L543.898 413.297L547.655 413.244L552.37 413.783L572.564 413.441L576.447 412.902L580.215 413.424L590.666 413.441L594.71 412.959L603.885 412.686L609.258 412.17L612.758 411.053L613.904 410.988L617.614 409.02L621.699 407.61L625.204 405.608L632.849 402.619L639.172 398.937L644.013 397.366L650.03 394.681L651.479 393.288L655.292 391.108" stroke="black" stroke-width="4" stroke-linejoin="round"/>
<path d="M631.749 377.487L629.435 377.4L629.287 376.793L629.858 377.187L630.913 377.048L634.561 379.141L640.653 381.298L647.424 382.579L652.185 383.67L654.002 384.483L657.737 385.092L662.759 386.715L663.732 387.104L664.609 387.999L664.719 387.82L664.415 390.455L662.998 392.576L661.568 393.111L659.71 394.852L656.28 398.707L653.541 402.654L650.586 407.884L648.565 411.998L647.581 414.879L645.819 418.138" stroke="black" stroke-width="4" stroke-linejoin="round"/>
<path d="M443.823 334.303L442.249 334.938L440.771 336.505L432.944 353.97L432.921 355.233L433.145 355.369L435.51 353.59L437.192 351.359L438.838 348.389L442.039 341.149L443.582 337.311L444.417 334.28L445.297 333.084L445.706 331.621L445.923 332.272L448.232 334.37L453.598 338.268L462.281 342.83L466.676 344.857L468.177 345.159L471.028 346.899L472.024 346.965L474.565 348.732L477.354 350.079L477.699 350.437L477.55 350.881" stroke="black" stroke-width="4" stroke-linejoin="round"/>
<path d="M697.734 244.967L697.13 249.419L697.39 257.71L697.015 265.141L697.189 268.468L696.483 276.689L697.175 280.115L697.442 286.267L698.281 291.447L698.227 295.851L697.79 298.395L698.467 306.09L698.897 307.56L698.732 306.897L698.984 307.234L698.918 306.913L698.857 307.169L699.573 307.062" stroke="black" stroke-width="6" stroke-linejoin="round"/>
<path d="M723.382 322.018C731.93 321.178 740.512 320.63 749.026 319.497C762.774 317.668 776.371 314.756 790.145 313.135C801.172 311.838 812.303 311.644 823.371 310.748C827.631 310.403 831.861 309.612 836.131 309.413C836.541 309.394 836.741 310.05 837.141 310.107C838.491 310.294 839.881 310.328 841.231 310.123C843.511 309.777 845.751 309.172 847.941 308.466C848.221 308.374 848.461 308.071 848.521 307.776C848.661 307.108 848.841 306.331 848.521 305.728C848.011 304.76 847.221 303.798 846.201 303.403C844.951 302.918 843.511 303.113 842.171 303.269C841.131 303.391 840.221 304.221 839.171 304.223C838.121 304.226 837.221 303.251 836.171 303.284C831.551 303.428 826.981 304.368 822.371 304.747C811.305 305.656 800.188 305.953 789.15 307.148C781.085 308.021 773.109 309.581 765.114 310.947C763.459 311.229 761.883 311.957 760.21 312.089C759.806 312.121 759.585 311.539 759.201 311.412C758.855 311.297 758.464 311.309 758.109 311.39C754.463 312.214 750.933 313.59 747.233 314.118C746.174 314.269 745.174 313.301 744.108 313.388C736.426 314.013 728.84 315.555 721.164 316.24C718.18 316.507 715.129 316.746 712.177 316.24C710.204 315.901 708.463 314.723 706.708 313.762C705.515 313.109 704.059 312.59 703.369 311.418C702.004 309.1 701.043 306.442 700.82 303.76C700.708 302.412 701.776 301.219 702.421 300.029C702.686 299.541 703.385 299.318 703.522 298.78C703.775 297.795 703.817 296.702 703.522 295.728C703.341 295.13 702.795 294.584 702.197 294.403C701.223 294.108 700.072 293.984 699.145 294.403C698.008 294.915 696.971 295.863 696.45 296.995C695.471 299.12 694.783 301.478 694.806 303.818C694.83 306.267 695.754 308.644 696.587 310.948C697.282 312.87 697.786 315.115 699.362 316.416C702.491 318.999 706.166 321.195 710.117 322.116L723.382 322.018ZM698.631 253.777C699.258 253.112 700.355 252.682 700.513 251.781C700.749 250.434 699.554 249.122 699.686 247.761C699.886 245.705 700.65 243.721 701.481 241.83C702.23 240.126 703.198 238.496 704.386 237.064C705.061 236.251 705.926 235.415 706.964 235.222C714.633 233.796 722.407 232.939 730.178 232.268C733.827 231.953 737.512 232.038 741.168 232.269C741.9 232.315 742.48 233.161 743.211 233.092C749.727 232.471 756.218 231.501 762.637 230.224C764.992 229.755 767.132 228.513 769.446 227.872C772.963 226.899 776.485 225.821 780.109 225.39C781.162 225.264 782.115 226.198 783.174 226.239C789.5 226.483 795.842 226.562 802.164 226.24C808.857 225.9 815.481 224.611 822.171 224.255C827.831 223.954 833.511 223.991 839.171 224.269C840.221 224.321 841.121 225.202 842.171 225.239C850.501 225.528 858.851 225.735 867.161 225.24C871.031 225.01 874.761 223.644 878.591 223.074C886.251 221.935 894.001 221.472 901.621 220.116C902.171 220.018 902.511 219.332 902.651 218.793C902.831 218.126 902.791 217.362 902.521 216.728C902.281 216.154 901.731 215.732 901.201 215.403C900.901 215.22 900.511 215.273 900.171 215.269C896.841 215.229 893.501 215.021 890.171 215.269C889.121 215.348 888.221 216.17 887.171 216.239C883.181 216.501 879.171 216.287 875.171 216.254C873.831 216.243 872.471 216.318 871.141 216.107C870.761 216.045 870.561 215.457 870.171 215.455C869.781 215.453 869.571 215.98 869.201 216.097C868.861 216.203 868.481 216.189 868.141 216.097C867.451 215.908 866.881 215.353 866.171 215.269C864.511 215.073 862.811 214.952 861.181 215.268C859.851 215.524 858.591 216.158 857.501 216.947C856.751 217.49 856.461 218.495 855.801 219.152C855.661 219.292 855.411 219.235 855.221 219.236C850.871 219.264 846.511 219.5 842.171 219.239C841.121 219.175 840.221 218.324 839.171 218.269C833.841 217.993 828.491 217.97 823.171 218.254C816.151 218.628 809.189 219.883 802.164 220.24C796.175 220.545 790.165 220.512 784.174 220.239C783.126 220.191 782.212 219.125 781.174 219.284C772.918 220.544 764.921 223.246 756.655 224.439C746.555 225.897 736.355 226.633 726.168 227.224C725.112 227.286 724.161 226.288 723.108 226.387C717.313 226.935 711.539 227.843 705.865 229.143C704.29 229.503 702.805 230.325 701.537 231.328C700.26 232.339 699.374 233.769 698.386 235.064C697.666 236.008 696.89 236.943 696.42 238.034C695.352 240.511 694.305 243.042 693.803 245.693C693.426 247.687 693.275 249.826 693.82 251.78C694.114 252.836 695.133 253.685 696.145 254.105" fill="black"/>
<path d="M887.881 218.434L889.591 219.107L897.121 218.821L898.241 218.324L898.931 218.686L901.371 218.398L902.291 218.685L904.811 218.223L908.971 218.032L909.661 218.353L913.721 218.627L914.101 219.11L914.591 219.036L917.251 220.676L917.441 221.824L917.811 222.755L917.991 222.628L918.031 224.14L918.991 225.88L919.651 229.574L920.101 230.031L920.161 232.072L920.711 233.83L920.461 234.909L920.741 235.784L920.761 239.123L920.911 238.961L921.021 239.563L920.851 244.885L919.971 249.942L920.051 252.48L919.601 257.602L919.901 262.41L921.001 269.136L921.781 276.554L921.451 278.341L921.741 280.044L921.531 281.779L921.901 282.743L921.231 285.939" stroke="black" stroke-width="6" stroke-linejoin="round"/>
<path d="M827.891 306.651L830.001 305.838L834.211 305.429L834.691 305.122L839.931 306.281L842.811 306.432L843.331 306.203L844.751 306.702L845.471 306.482L848.821 306.68L854.721 305.623L855.421 306.1L856.201 305.757L857.311 305.913L859.271 305.625L860.591 305.946L861.721 305.668L862.411 306.093L863.221 305.797L863.631 306.361L863.931 306.075L865.941 306.206L868.781 305.966L869.101 305.678L870.261 305.964L870.631 306.4L871.831 306.071L876.641 305.981L876.811 305.764L877.471 306.225L878.981 305.989L879.261 306.356L880.031 305.995L881.081 306.176L881.821 305.884L883.551 306.285L884.381 305.749L889.061 305.556L889.761 305.14L892.621 305.013L893.141 304.674L895.681 304.507L895.801 304.72L896.071 304.347L897.311 304.668L898.041 304.277L899.401 304.429L901.221 304.025L901.821 304.351L904.061 303.581L905.101 303.694L906.181 303.012L907.031 302.939L907.191 302.577L907.751 302.841L908.091 302.411L911.471 301.469L911.831 301.125L913.081 301.004L913.301 301.232L913.801 300.696L914.201 300.817L916.191 299.876L916.361 299.526L917.451 299.567L918.111 298.897L918.221 299.177L919.441 297.473L920.551 296.553L921.181 295.294L922.331 294.441V293.632L922.891 292.289L923.291 292.113L923.191 291.436L923.691 290.772L924.071 289.151L923.411 287.219L921.981 284.61L921.711 283.015L921.921 283.206L922.061 282.306L921.761 282.422L921.551 281.669L921.471 282.163" stroke="black" stroke-width="6" stroke-linejoin="round"/>
<path d="M750.466 255.973L749.408 257.871L749.052 260.314L749.657 271.911L749.801 284.864L750.466 291.814" stroke="black" stroke-width="6" stroke-linejoin="round"/>
<path d="M752.898 256.447L751.961 255.322L753.077 254.539L756.499 253.231L758.104 253.162L759.7 252.686L765.672 253.494L768.372 254.338L769.609 255.212L771.1 257.555L771.392 259.784L770.985 262.091L769.692 264.243L767.439 266.753L765.837 267.969L761.613 270.651L758.477 271.797L757.154 272.898L755.861 273.264L755.993 273.461L756.19 273.049L756.852 273.131L763.132 271.224L768.616 271.041L770.285 271.395L776.929 274.672L779.351 276.426L780.667 277.889L781.662 280.878L781.505 283.746L780.989 285.524L780.094 287.657L777.661 291.13L772.398 293.881L761.112 296.788L755.198 299.28L753.975 299.372L753.864 299.686L754.123 299.415" stroke="black" stroke-width="6" stroke-linejoin="round"/>
<path d="M799.868 257.302L798.008 263.112L797.657 267.763L798.14 272.522L800.19 279.979L800.899 280.727L801.557 282.325L803.999 284.47L808.124 285.748L812.141 286.195L813.325 285.839L814.621 285.878L820.581 281.84L824.351 278.503L827.221 274.482L829.611 268.976L830.281 266.319L830.861 261.187L830.771 256.703L830.491 257.034" stroke="black" stroke-width="6" stroke-linejoin="round"/>
<path d="M849.711 251.686L849.771 251.028L849.831 252.034L851.101 254.244L853.431 256.407L856.151 260.068L859.741 262.95L860.201 264.049L860.061 263.483" stroke="black" stroke-width="6" stroke-linejoin="round"/>
<path d="M859.581 263.213L860.311 272.287L861.381 276.458L861.441 279.095L862.431 282.568L862.611 284.88" stroke="black" stroke-width="6" stroke-linejoin="round"/>
<path d="M861.761 261.511L864.901 257.666L869.081 251.718L870.951 248.468L871.671 246.113L872.971 244.461" stroke="black" stroke-width="6" stroke-linejoin="round"/>
<path d="M770.437 377.977C772.837 376.904 775.304 375.968 777.638 374.758C779.455 373.817 781.169 372.685 782.863 371.537C783.816 370.891 784.91 370.333 785.567 369.387C785.883 368.932 785.837 368.174 785.512 367.725C785.238 367.346 784.585 367.267 784.144 367.42C783.794 367.541 783.867 368.133 783.598 368.388C782.755 369.188 781.824 369.897 780.856 370.541C779.236 371.62 777.572 372.641 775.849 373.546C774.025 374.504 772.242 375.679 770.23 376.12C768.248 376.553 766.158 376.352 764.145 376.106C763.531 376.031 762.977 375.615 762.538 375.18C761.842 374.492 760.944 373.777 760.809 372.808C760.347 369.47 760.229 366.019 760.809 362.7C761.112 360.961 762.319 359.48 763.382 358.07C764.469 356.63 765.731 355.281 767.199 354.232C769.344 352.697 771.654 351.335 774.117 350.392C775.076 350.025 776.217 350.096 777.197 350.403C777.788 350.587 778.3 351.159 778.47 351.753C778.577 352.127 777.949 352.374 777.872 352.755C777.835 352.937 778.039 353.096 778.171 353.228C778.477 353.533 778.764 353.908 779.171 354.053C779.347 354.116 779.509 353.882 779.645 353.754C779.963 353.454 780.415 353.204 780.522 352.78C780.741 351.921 780.98 350.907 780.569 350.121C780.118 349.261 779.162 348.644 778.225 348.392C776.901 348.037 775.438 348.038 774.112 348.388C772.12 348.914 770.313 349.996 768.493 350.962C767.427 351.528 766.396 352.183 765.481 352.969C764.013 354.231 762.473 355.482 761.378 357.077C760.212 358.775 759.117 360.659 758.805 362.695C758.246 366.348 757.818 370.224 758.82 373.78C759.372 375.743 761.227 377.413 763.145 378.105L770.437 377.977ZM796.14 370.217C798.036 369.532 800.316 369.496 801.827 368.162C803.326 366.841 804.102 364.765 804.532 362.813C804.736 361.885 804.166 360.881 803.597 360.121C803.011 359.337 802.137 358.745 801.225 358.392C800.578 358.143 799.778 358.12 799.145 358.403C797.793 359.007 796.57 359.919 795.505 360.948C794.935 361.498 794.693 362.31 794.356 363.027C793.793 364.228 793.216 365.431 792.81 366.695C792.7 367.04 792.624 367.484 792.829 367.783C793.448 368.686 794.267 369.459 795.149 370.107L796.14 370.217ZM797.245 368.104C796.547 368.102 795.806 368.337 795.15 368.097C794.848 367.986 794.599 367.464 794.787 367.203C795.504 366.209 796.912 365.823 797.546 364.774C797.757 364.425 796.978 364.145 796.872 363.751C796.831 363.598 797.063 363.497 797.174 363.384C798.155 362.384 799.019 361.245 800.146 360.413C800.428 360.204 800.892 360.242 801.198 360.412C801.74 360.713 802.468 361.108 802.513 361.727C802.606 362.987 802.37 364.424 801.565 365.398" fill="black"/>
<path d="M807.376 366.001L806.989 366.189L807.669 366.34L808.733 366.182L812.269 364.281L816.191 360.259L820.921 352.991L821.481 349.989L820.781 348.896L818.771 349.75L817.911 351.071L815.891 354.947L815.051 358.896L815.341 362.066L816.091 364.31L817.921 367.202" stroke="black" stroke-width="2" stroke-linejoin="round"/>
<path d="M843.641 372.764C845.211 370.209 846.241 367.225 848.351 365.098C849.631 363.808 852.271 364.414 853.371 362.971C853.921 362.257 852.071 361.457 851.171 361.417C850.221 361.374 849.501 362.297 848.671 362.757C847.891 363.189 846.961 363.439 846.361 364.092C845.251 365.296 845.101 368.958 843.651 368.194C841.511 367.068 842.161 363.586 841.201 361.371C841.131 361.214 840.841 361.559 840.831 361.731C840.701 363.755 840.471 365.814 840.801 367.815C841.111 369.683 841.761 371.522 842.711 373.165L843.641 372.764ZM831.461 370.935C832.911 370.017 834.491 369.287 835.801 368.18C836.551 367.55 837.151 366.711 837.531 365.81C837.701 365.389 837.531 364.872 837.361 364.452C837.001 363.601 836.551 362.771 835.951 362.064C835.131 361.078 834.411 359.632 833.141 359.425C831.821 359.21 830.551 360.251 829.441 361.005C828.401 361.715 827.211 362.53 826.821 363.728C826.241 365.478 825.731 367.705 826.731 369.254L831.461 370.935ZM831.181 369.059C830.621 368.622 829.471 368.453 829.511 367.747C829.561 366.899 831.511 366.838 831.371 365.999C831.211 365.072 828.781 365.429 828.971 364.509C829.231 363.273 830.961 362.907 832.111 362.393C832.631 362.164 833.341 362.038 833.801 362.358C834.601 362.909 835.301 363.775 835.491 364.726C835.611 365.343 835.041 365.942 834.601 366.388" fill="black"/>
<path d="M863.931 359.951L863.811 359.296L864.081 359.366L864.061 359.768L864.331 359.519" stroke="black" stroke-width="2" stroke-linejoin="round"/>
<path d="M865.161 371.079C865.171 370.814 865.311 370.51 865.171 370.285C864.951 369.913 864.571 369.302 864.161 369.453C863.741 369.612 863.601 370.393 863.841 370.782" fill="black"/>
<path d="M731.86 365.499L731.1 366.451L730.855 367.983L732.348 368.537L734.129 368.012L736.137 366.477L736.612 365.474L736.492 364.648L735.215 363.871L734.132 363.958L733.05 364.553L731.718 366.759L731.824 367.774L733.21 369.363L734.649 369.488L735.005 369.838L737.401 367.753L737.905 366.707L738.067 365.052L737.933 363.722L737.196 362.569L734.916 363.306L732.414 366.99L732.392 367.836L733.164 368.758L734.613 368.882L735.696 368.603L737.947 366.994L738.2 366.481L738.379 365.304L737.384 363.926L736.413 363.579L735.472 363.876L734.23 365.003L732.469 367.555L732.383 368.49L732.79 368.873L734.907 369.041L736.648 368.233L738.492 366.545L738.749 365.068L737.949 364.59L736.569 364.666L734.593 365.774L733.799 366.682L732.961 368.811L733.948 369.674" stroke="black" stroke-width="2" stroke-linejoin="round"/>
<path d="M888.101 361.3L887.651 360.256L887.301 360.162L886.301 362.221L885.921 365.598" stroke="black" stroke-width="2" stroke-linejoin="round"/>
<path d="M897.841 364.77L898.501 362.327L898.061 360.442L897.141 358.932L894.751 356.579L893.871 356.21L891.771 356.381L890.511 357.516L888.971 360.619L888.171 363.38L888.551 364.578" stroke="black" stroke-width="2" stroke-linejoin="round"/>
<path d="M909.631 371.769C911.211 368.543 912.131 364.901 914.361 362.091C915.591 360.553 917.991 360.487 919.551 359.297C919.811 359.104 919.491 358.524 919.191 358.413C918.551 358.175 917.811 358.26 917.141 358.402C916.761 358.483 916.561 359.043 916.171 359.053C915.781 359.064 915.551 358.532 915.171 358.455C914.991 358.418 914.831 358.626 914.691 358.754C913.901 359.503 912.961 360.149 912.381 361.077C911.021 363.25 910.291 365.768 908.961 367.958C908.851 368.144 908.521 367.743 908.471 367.533C907.791 364.99 907.041 362.438 906.801 359.817C906.711 358.764 907.711 357.762 907.501 356.725C907.421 356.268 906.581 356.249 906.141 356.412C905.561 356.63 905.051 357.149 904.821 357.728C904.561 358.376 904.671 359.132 904.801 359.816C905.551 363.736 906.391 367.642 907.441 371.491C907.521 371.791 907.841 372.056 908.151 372.095" fill="black"/>
<path d="M931.881 360.906L931.371 360.794L931.151 360.357L929.081 360.092L926.631 360.973L925.061 362.677L924.351 364.233L923.481 367.061L923.851 369.166L925.451 370.268L927.971 369.907L931.801 365.512L932.731 363.448L933.031 361.895L933.371 364.796L934.201 367.649L935.231 369.14L936.671 370.014L937.531 370.008" stroke="black" stroke-width="2" stroke-linejoin="round"/>
<path d="M946.351 356.291L945.961 356.598L946.611 359.014L946.731 364.936L947.111 367.212L948.861 366.639L952.451 361.623L954.421 360.071L955.131 360.142L955.491 363.519L956.051 365.5L956.571 366.144L958.571 366.857L959.921 366.598L962.011 365.429" stroke="black" stroke-width="2" stroke-linejoin="round"/>
<path d="M974.501 357.639V357.156V357.601L973.851 357.286L973.251 357.281L972.981 357.644L972.191 357.386L971.311 358.133L969.091 361.875L968.601 363.169L968.521 364.611L969.731 365.884L970.851 365.875L973.541 364.569L975.081 362.334L975.461 359.634L975.781 363.51L976.951 369.764L976.871 371.75L976.301 374.115L975.111 375.402L972.231 377.077L970.101 377.752L969.021 377.597L968.761 377.364L968.911 377.022L970.231 375.293L971.121 374.543L971.641 374.536L973.721 372.361L984.441 363.525L992.971 354.145L993.041 353.59L992.571 353.636L992.321 354.036L991.241 353.567L989.401 354.129L985.731 356.837L984.931 357.926L984.341 359.57L984.461 362.6L984.981 365.015L986.121 366.851L987.401 367.107L991.251 366.986" stroke="black" stroke-width="2" stroke-linejoin="round"/>
<path d="M986.311 368.961L987.021 368.335L987.271 368.813L987.711 368.737L989.691 369.794L992.101 369.896L994.571 368.938L995.321 368.325L996.551 368.287L997.581 367.687L998.441 367.847L999.651 367.344L1001.57 365.759" stroke="black" stroke-width="2" stroke-linejoin="round"/>
<path d="M740.074 413.651L739.093 414.342L738.432 414.233L737.854 414.947L737.43 417.092L737.818 418.524L738.896 418.772L740.457 418.342L741.559 417.325L741.946 416.308L741.806 415.572L740.737 414.655L738.946 415.285L738.075 417.169L737.956 418.118L738.239 418.918L739.149 419.683L742.418 418.952L743.745 417.737L744.609 416.29L744.384 415.604L742.484 414.248L740.299 414.047L739.452 414.554L738.055 417.234L737.777 419.979L738.197 421.398L739.561 421.924" stroke="black" stroke-width="2" stroke-linejoin="round"/>
<path d="M893.491 359.952L893.911 357.849L893.681 357.154L891.461 356.924L889.991 357.353L886.581 360.745L885.501 363.021L885.071 365.147L885.201 367.726L885.991 369.384L886.851 370.393L888.691 371.539L892.441 371.634L896.301 370.219L898.251 369.279L899.181 368.439L900.091 366.051L899.851 359.859L899.251 358.793L898.191 357.844L896.561 357.073L894.581 356.869L892.051 357.567L889.701 358.758L888.981 359.88L889.461 360.224" stroke="black" stroke-width="2" stroke-linejoin="round"/>
<path d="M776.318 416.032L778.321 414.938L779.083 414.257L779.15 413.804L778.349 412.828L776.236 412.309L773.624 412.664L769.12 416.145L767.548 418.045L766.087 421.486L766.109 424.16L766.926 425.608L767.699 426.074L769.314 426.247L771.046 425.556L773.011 424.195L776.671 420.438L778.736 417.31L779.561 414.661L779.505 413.997L780.644 419.424L781.871 421.196L782.426 422.796" stroke="black" stroke-width="2" stroke-linejoin="round"/>
<path d="M798.607 415.759L799.309 413.779L798.983 413.213L796.662 412.763L794.655 413.429L792.018 414.428L791.314 415.081L790.173 416.649L789.294 418.989L789.349 420.197L790.281 421.405L792.76 421.751L795.132 420.501L798.669 416.862L802.362 410.878L803.937 406.645L805.479 399.628L805.51 397.738L804.879 396.005L804.193 395.937L803.119 397.212L801.133 401.358L799.823 411.886L800.481 416.597L802.078 419.176L803.705 420.282" stroke="black" stroke-width="2" stroke-linejoin="round"/>
<path d="M814.221 414.975L814.321 412.478L813.226 411.655L812.07 411.294L809.888 412.82L808.211 415.274L807.849 417.82L808.093 419.95L808.451 420.984L809.465 421.926L810.985 421.852L811.603 421.409L814.791 417.282L817.951 411.713L819.261 408.315L821.641 398.249L822.091 395.052L821.851 393.223L820.311 393.871L818.521 398.095L817.501 404.501L816.861 414.208L817.291 416.372L818.001 417.581L820.651 419.87" stroke="black" stroke-width="2" stroke-linejoin="round"/>
<path d="M863.331 408.036L863.671 406.678L863.221 406.876L862.421 406.572L860.181 406.499L856.101 407.386L854.091 407.256L850.581 408.438L850.111 408.236L849.131 408.914L848.981 409.157L849.471 408.914L854.911 413.647L856.371 414.39L857.531 416.581L857.671 418.738L856.841 421.51L856.151 422.454L852.631 424.52L850.141 424.908L847.741 424.581L847.171 424.175L846.781 423.244L846.931 422.729L847.881 422.107" stroke="black" stroke-width="2" stroke-linejoin="round"/>
<path d="M869.051 401.827L868.531 406.765L866.551 416.718L866.491 419.18L867.211 421.365L867.921 421.771L868.571 421.717L870.441 420.484L875.471 415.19L876.481 414.494L876.511 418.102L877.691 420.416L880.321 421.462L882.291 421.385L883.401 420.976L885.641 419.905L888.411 417.763L890.091 416.243L891.241 414.622L891.691 413.272L890.971 412.18L889.961 411.517L889.681 411.709L888.641 411.338L887.401 411.618L885.871 412.534L884.261 414.629L883.251 416.687L882.461 419.343L882.581 422.078L883.281 423.009L883.721 423.052L885.951 422.618L887.381 421.58L889.231 419.467L891.311 414.437L891.141 419.248L891.521 421.61L893.361 422.809L895.511 422.947" stroke="black" stroke-width="2" stroke-linejoin="round"/>
<path d="M906.941 414.541L905.461 414.429L905.031 413.74L902.521 414.546L900.541 416.593L898.601 419.898L897.891 421.864L897.961 423.585L898.441 423.81L900.241 423.576L902.901 422.33L905.261 420.009L907.221 417.483L910.511 411.977L913.361 404.749L914.401 400.192L914.891 394.814L910.501 405.691L909.341 411.915L909.181 415.953L909.761 418.471L910.951 420.368L912.951 420.717" stroke="black" stroke-width="2" stroke-linejoin="round"/>
<path d="M920.241 415.552L920.251 415.004L920.101 415.372L919.781 415.202L919.531 415.518L918.611 417.858L918.031 420.654L918.271 422.612L920.411 423.675L924.991 423.633L926.681 423.074L928.391 422.011L929.491 419.813L929.981 418.102L930.021 416.477L928.901 414.034L926.291 412.527L925.161 412.735L923.281 413.85L920.991 416.611L921.191 417.761L923.091 418.899" stroke="black" stroke-width="2" stroke-linejoin="round"/>
<path d="M933.111 413.832L932.601 414.598L933.211 419.504L933.961 421.728L934.411 422.138L935.761 422.912L937.691 422.544L939.101 421.706L940.901 420.144L942.901 417.541L943.491 416.312L943.621 415.13L942.851 415.667L941.961 416.932L941.371 418.449L941.351 419.72L942.501 421.332L945.231 422.915L947.711 422.418L949.261 421.46L950.721 420.021L953.441 416.161L955.421 411.867L956.081 409.883L955.491 410.633" stroke="black" stroke-width="2" stroke-linejoin="round"/>
<path d="M744.932 466.224L744.592 465.779L744.426 466.66L744.389 467.984L744.724 468.681L746.278 468.987L747.642 468.609L748.971 467.371L750.099 465.523L749.908 463.226L749.408 462.906L748.253 463.183L746.755 465.427L746.326 467.126L746.247 468.405L746.598 469.509L746.91 469.783L748.951 469.871L750.888 468.785L751.403 467.921L751.809 466.362L751.416 464.426L749.498 462.938L748.138 463.065L746.374 464.402L744.753 467.147L744.202 469.575L744.746 470.03L745.905 470.155L747.248 469.761" stroke="black" stroke-width="2" stroke-linejoin="round"/>
<path d="M761.194 458.967L760.846 458.744L761.237 459.564L761.851 463.341L762.362 473.256L763.25 476.095L763.499 473.807L764.577 469.668L766.591 464.241L767.763 462.605L769.183 461.404L770.948 460.846L772.494 462.34L772.818 461.987L773.09 462.197L773.543 460.936" stroke="black" stroke-width="2" stroke-linejoin="round"/>
<path d="M784.523 461.518L783.114 462.188L781.693 463.952L780.552 468.853L780.98 471.191L782.027 472.947L782.813 473.53L784.652 473.594L786.527 472.806L788.363 471.686L791.22 468.97L792.608 465.427L792.566 463.608L791.682 461.397L789.491 459.374L787.852 458.812L786.57 459.173L784.259 461.472L782.975 463.359L781.532 467.08L781.729 467.909L782.748 468.378L785.849 468.528" stroke="black" stroke-width="2" stroke-linejoin="round"/>
<path d="M800.892 458.778L800.39 458.742L799.41 462.1L799.26 463.86L799.43 467.41L799.913 468.841L800.451 469.469L802.913 469.431L805.12 468.615L806.805 467.248L808.996 463.781L809.816 460.68L809.812 459.405L809.566 464.442L809.807 465.885L810.737 467.332L812.011 467.958" stroke="black" stroke-width="2" stroke-linejoin="round"/>
<path d="M820.981 460.264L820.561 459.663L820.361 459.77L820.761 460.344L820.861 461.848L820.361 469.445L821.851 468.635L824.981 465.163L827.551 463.242L827.921 463.984L830.751 466.122L831.281 468.123L831.241 469.282L831.551 469.632L832.641 469.295" stroke="black" stroke-width="2" stroke-linejoin="round"/>
<path d="M844.871 462.96L844.311 463.285L844.551 462.836L844.491 463.149L842.241 464.426L839.981 467.152L839.721 467.915L839.631 469.241L840.071 470.494L841.051 470.676L843.311 469.194L848.021 463.193L850.511 458.614L851.721 455.665L852.411 452.902L852.441 451.325L851.991 448.552L851.181 446.54L850.361 446.303L848.881 447.905L847.121 453.079L846.011 458.857L846.021 462.394L847.191 467.625L848.771 469.684L850.461 470.382" stroke="black" stroke-width="2" stroke-linejoin="round"/>
<path d="M856.851 463.276L856.451 463.465L856.771 463.962L857.791 463.894L859.211 463.591L861.411 462.56L865.091 459.255L865.521 458.094L864.751 457.409L863.611 457.412L862.411 458.209L859.971 460.839L857.991 465.044L857.851 467.509L859.291 469.094L861.301 469.657L867.501 468.584L871.151 467.109" stroke="black" stroke-width="2" stroke-linejoin="round"/>
<path d="M879.621 461.963L880.151 460.617L879.911 459.58L878.031 458.235L877.251 458.307L876.031 458.897L874.421 460.799L872.581 464.805L872.181 466.614L872.541 468.003L873.111 468.426L875.081 468.528L878.281 466.71L882.251 461.266L883.801 457.808L885.231 452.435L886.201 442.938L883.911 448.533L883.091 452.007L882.831 455.342L883.021 458.299L883.681 461.375L884.731 463.817L885.851 465.309" stroke="black" stroke-width="2" stroke-linejoin="round"/>
<path d="M912.421 459.932L911.831 460.208L912.551 461.079L914.291 462.281L916.141 462.985L918.491 463.012L922.741 461.309L926.781 458.299L927.931 456.325L926.881 454.406L924.491 453.783L922.451 454.366L921.261 455.108L918.371 458.086L916.271 462.121L915.511 464.402L915.621 465.475L916.821 467.107L917.961 467.087L919.841 468.036L925.351 467.74L929.451 466.568L933.671 464.089" stroke="black" stroke-width="2" stroke-linejoin="round"/>
<path d="M943.011 460.412L943.681 458.976L943.251 457.76L942.731 457.475L940.671 457.79L937.961 460.089L936.051 462.457L935.251 463.98L934.951 465.317L935.551 466.07L937.441 466.276L939.501 465.674L943.541 462.061L946.881 457.673L948.701 453.661L949.911 449.305L949.701 446.218L948.751 444.224L948.351 444.183L947.091 446.63L945.531 451.531L945.101 453.872L945.131 456.306L945.731 458.503L947.971 463.697L948.421 464.319L948.691 464.238L949.451 465.627L951.351 466.317" stroke="black" stroke-width="2" stroke-linejoin="round"/>
<path d="M965.861 457.436L967.771 454.047L966.561 453.38L964.101 453.633L962.171 454.859L960.881 455.214L958.731 458.673L958.761 459.324L959.671 459.642L961.711 459.331L966.421 456.458L967.901 454.821L969.031 454.144L968.041 454.906L967.211 456.473L966.661 463.638L966.241 465.575L965.321 468.373L963.511 472.026L960.611 475.979L957.711 476.472L957.141 475.985L956.981 475.362L957.311 472.646L958.371 470.15L959.661 468.173L965.851 462.817L972.161 459.166" stroke="black" stroke-width="2" stroke-linejoin="round"/>
<path d="M979.331 455.871L980.271 456.277L981.401 455.746L982.861 455.616L987.191 453.455L988.761 451.258L988.531 449.924L988.071 450.115L986.941 449.726L985.041 450.279L981.601 453.013L980.261 454.781L979.351 456.808L978.841 459.925L979.771 461.742L982.261 462.384L986.011 462.266L990.021 461.644" stroke="black" stroke-width="2" stroke-linejoin="round"/>
<path d="M1005.38 451.015L1004.4 449.833L1001.69 449.953L1000.71 450.547L999.621 450.582L996.741 452.332L996.481 452.815L996.771 452.785L999.071 455.356L1000.85 456.028L1003.22 457.945L1003.87 460.113L1003.4 461.834L1001.55 463.764L999.711 464.24L997.021 464.162L996.291 463.757" stroke="black" stroke-width="2" stroke-linejoin="round"/>
</svg>
