<svg width="60" height="61" viewBox="0 0 60 61" fill="none" xmlns="http://www.w3.org/2000/svg">
<path d="M30 60.034C46.5685 60.034 59.9999 46.6026 59.9999 30.0341C59.9999 13.4656 46.5685 0.0341797 30 0.0341797C13.4315 0.0341797 6.10352e-05 13.4656 6.10352e-05 30.0341C6.10352e-05 46.6026 13.4315 60.034 30 60.034Z" fill="#1977F3"/>
<path d="M41.6774 38.7072L43.0064 30.0333H34.6869V24.4054C34.6869 22.0345 35.8471 19.7183 39.5765 19.7183H43.3607V12.3354C43.3607 12.3354 39.9266 11.749 36.6444 11.749C29.7931 11.749 25.3127 15.9003 25.3127 23.4225V30.0333H17.6935V38.7072H25.3127V59.6704C26.8399 59.9109 28.4051 60.0332 29.9998 60.0332C31.5945 60.0332 33.1597 59.9067 34.6869 59.6704V38.7072H41.6774Z" fill="white"/>
</svg>
