<svg width="60" height="61" viewBox="0 0 60 61" fill="none" xmlns="http://www.w3.org/2000/svg">
<path d="M30.0097 0.0341797C17.4849 0.0341797 13.8219 0.0471039 13.1099 0.106186C10.5396 0.319896 8.94025 0.7247 7.19781 1.59247C5.85498 2.25944 4.79595 3.03259 3.75076 4.11637C1.84727 6.09285 0.693645 8.52444 0.276031 11.4148C0.0729924 12.818 0.0139266 13.1042 0.00192883 20.2716C-0.00268569 22.6607 0.00192883 25.805 0.00192883 30.0224C0.00192883 42.5404 0.0157724 46.2007 0.0757611 46.9115C0.283414 49.4133 0.675648 50.9873 1.50626 52.7089C3.09366 56.0046 6.12539 58.4787 9.69703 59.4018C10.9337 59.7203 12.2996 59.8957 14.0531 59.9788C14.7961 60.0111 22.3685 60.0342 29.9455 60.0342C37.5226 60.0342 45.0996 60.025 45.8241 59.988C47.8545 59.8925 49.0335 59.7342 50.3371 59.3972C52.108 58.9429 53.7585 58.1074 55.1732 56.949C56.588 55.7906 57.7328 54.3373 58.5278 52.6905C59.3423 51.0103 59.7553 49.3764 59.9422 47.0052C59.9828 46.4883 59.9999 38.2459 59.9999 30.0146C59.9999 21.7819 59.9814 13.5547 59.9408 13.0377C59.7516 10.6283 59.3386 9.00817 58.4978 7.29572C57.808 5.89391 57.042 4.84705 55.9299 3.77665C53.9456 1.88049 51.5184 0.726546 48.6256 0.30928C47.2241 0.106647 46.9449 0.0466423 39.774 0.0341797H30.0097Z" fill="url(#paint0_radial_216_2057)"/>
<path d="M30.0097 0.0341797C17.4849 0.0341797 13.8219 0.0471039 13.1099 0.106186C10.5396 0.319896 8.94025 0.7247 7.19781 1.59247C5.85498 2.25944 4.79595 3.03259 3.75076 4.11637C1.84727 6.09285 0.693645 8.52444 0.276031 11.4148C0.0729924 12.818 0.0139266 13.1042 0.00192883 20.2716C-0.00268569 22.6607 0.00192883 25.805 0.00192883 30.0224C0.00192883 42.5404 0.0157724 46.2007 0.0757611 46.9115C0.283414 49.4133 0.675648 50.9873 1.50626 52.7089C3.09366 56.0046 6.12539 58.4787 9.69703 59.4018C10.9337 59.7203 12.2996 59.8957 14.0531 59.9788C14.7961 60.0111 22.3685 60.0342 29.9455 60.0342C37.5226 60.0342 45.0996 60.025 45.8241 59.988C47.8545 59.8925 49.0335 59.7342 50.3371 59.3972C52.108 58.9429 53.7585 58.1074 55.1732 56.949C56.588 55.7906 57.7328 54.3373 58.5278 52.6905C59.3423 51.0103 59.7553 49.3764 59.9422 47.0052C59.9828 46.4883 59.9999 38.2459 59.9999 30.0146C59.9999 21.7819 59.9814 13.5547 59.9408 13.0377C59.7516 10.6283 59.3386 9.00817 58.4978 7.29572C57.808 5.89391 57.042 4.84705 55.9299 3.77665C53.9456 1.88049 51.5184 0.726546 48.6256 0.30928C47.2241 0.106647 46.9449 0.0466423 39.774 0.0341797H30.0097Z" fill="url(#paint1_radial_216_2057)"/>
<path d="M29.9961 7.88086C23.9806 7.88086 23.2256 7.90717 20.863 8.01472C18.505 8.12273 16.8955 8.49614 15.4871 9.04403C14.0303 9.60993 12.7945 10.3669 11.5634 11.5989C10.3313 12.8304 9.57452 14.0665 9.00694 15.5232C8.45781 16.9324 8.08403 18.5428 7.9779 20.9006C7.87269 23.2639 7.845 24.0195 7.845 30.0366C7.845 36.0537 7.87177 36.8065 7.97882 39.1698C8.08726 41.5285 8.46058 43.1385 9.00786 44.5472C9.57406 46.0044 10.3308 47.2405 11.5625 48.472C12.7931 49.7044 14.0289 50.4632 15.4848 51.0291C16.8941 51.577 18.5041 51.9504 20.8616 52.0584C23.2243 52.166 23.9787 52.1923 29.9938 52.1923C36.0097 52.1923 36.7623 52.166 39.125 52.0584C41.483 51.9504 43.0944 51.577 44.5037 51.0291C45.96 50.4632 47.1939 49.7044 48.4246 48.472C49.6567 47.2405 50.4135 46.0044 50.981 44.5477C51.5256 43.1385 51.8993 41.528 52.0101 39.1703C52.1162 36.807 52.1439 36.0537 52.1439 30.0366C52.1439 24.0195 52.1162 23.2643 52.0101 20.901C51.8993 18.5424 51.5256 16.9324 50.981 15.5237C50.4135 14.0665 49.6567 12.8304 48.4246 11.5989C47.1925 10.3665 45.9605 9.60947 44.5023 9.04403C43.0902 8.49614 41.4798 8.12273 39.1217 8.01472C36.7591 7.90717 36.0069 7.88086 29.9896 7.88086H29.9961ZM28.0091 11.8735C28.5988 11.8726 29.2568 11.8735 29.9961 11.8735C35.91 11.8735 36.611 11.8947 38.9464 12.0009C41.106 12.0997 42.2781 12.4606 43.0588 12.7639C44.0925 13.1655 44.8294 13.6455 45.6042 14.421C46.3795 15.1964 46.8594 15.9349 47.2617 16.9689C47.5649 17.7489 47.9262 18.9213 48.0245 21.0815C48.1307 23.4171 48.1537 24.1187 48.1537 30.0315C48.1537 35.9443 48.1307 36.6459 48.0245 38.9815C47.9258 41.1417 47.5649 42.3141 47.2617 43.0941C46.8603 44.1281 46.3795 44.8643 45.6042 45.6393C44.829 46.4147 44.093 46.8948 43.0588 47.2963C42.279 47.601 41.106 47.961 38.9464 48.0598C36.6114 48.166 35.91 48.189 29.9961 48.189C24.0816 48.189 23.3807 48.166 21.0458 48.0598C18.8862 47.9601 17.7141 47.5991 16.9328 47.2959C15.8992 46.8943 15.1609 46.4143 14.3856 45.6388C13.6104 44.8634 13.1305 44.1267 12.7281 43.0923C12.4249 42.3122 12.0636 41.1398 11.9653 38.9796C11.8592 36.6441 11.8379 35.9425 11.8379 30.026C11.8379 24.1095 11.8592 23.4116 11.9653 21.076C12.0641 18.9158 12.4249 17.7434 12.7281 16.9624C13.1295 15.9285 13.6104 15.1899 14.3856 14.4145C15.1609 13.639 15.8992 13.159 16.9328 12.7565C17.7136 12.4519 18.8862 12.0918 21.0458 11.9926C23.0891 11.9003 23.8809 11.8726 28.0091 11.868V11.8735ZM41.8194 15.5523C41.2937 15.5523 40.7797 15.7082 40.3426 16.0004C39.9055 16.2926 39.5648 16.7079 39.3637 17.1937C39.1625 17.6796 39.1099 18.2142 39.2126 18.73C39.3152 19.2457 39.5684 19.7195 39.9402 20.0913C40.3121 20.4631 40.7858 20.7162 41.3014 20.8187C41.8171 20.9212 42.3515 20.8684 42.8372 20.667C43.3228 20.4656 43.7379 20.1247 44.0298 19.6874C44.3218 19.25 44.4775 18.7359 44.4773 18.21C44.4773 16.7422 43.2868 15.5514 41.8194 15.5514V15.5523ZM29.9961 18.6587C23.7143 18.6587 18.6213 23.7531 18.6213 30.0366C18.6213 36.32 23.7143 41.4122 29.9961 41.4122C36.2778 41.4122 41.3695 36.32 41.3695 30.0366C41.3695 23.7531 36.2773 18.6587 29.9956 18.6587H29.9961ZM29.9961 22.6513C34.0735 22.6513 37.3793 25.9576 37.3793 30.0366C37.3793 34.1151 34.0735 37.4218 29.9961 37.4218C25.9182 37.4218 22.6128 34.1151 22.6128 30.0366C22.6128 25.9576 25.9182 22.6513 29.9961 22.6513V22.6513Z" fill="white"/>
<defs>
<radialGradient id="paint0_radial_216_2057" cx="0" cy="0" r="1" gradientUnits="userSpaceOnUse" gradientTransform="translate(15.9375 64.6554) rotate(-90) scale(59.4644 55.3066)">
<stop stop-color="#FFDD55"/>
<stop offset="0.1" stop-color="#FFDD55"/>
<stop offset="0.5" stop-color="#FF543E"/>
<stop offset="1" stop-color="#C837AB"/>
</radialGradient>
<radialGradient id="paint1_radial_216_2057" cx="0" cy="0" r="1" gradientUnits="userSpaceOnUse" gradientTransform="translate(-10.0504 4.35648) rotate(78.6806) scale(26.5808 109.567)">
<stop stop-color="#3771C8"/>
<stop offset="0.128" stop-color="#3771C8"/>
<stop offset="1" stop-color="#6600FF" stop-opacity="0"/>
</radialGradient>
</defs>
</svg>
