<svg width="60" height="61" viewBox="0 0 60 61" fill="none" xmlns="http://www.w3.org/2000/svg">
<path d="M30.0001 0.0341797C13.1026 0.0341797 6.10352e-05 12.4163 6.10352e-05 29.1334C6.10352e-05 37.8781 3.58506 45.4379 9.42006 50.6578C9.90756 51.0928 10.2076 51.7078 10.2226 52.3677L10.3876 57.7076C10.3996 58.1005 10.5079 58.4844 10.7031 58.8257C10.8982 59.1669 11.1742 59.4549 11.5067 59.6645C11.8393 59.8741 12.2182 59.9988 12.6103 60.0277C13.0023 60.0566 13.3954 59.9887 13.7551 59.83L19.7101 57.2051C20.2126 56.9801 20.7826 56.9426 21.3151 57.0851C24.0526 57.8351 26.9626 58.2401 30.0001 58.2401C46.8976 58.2401 60.0001 45.8579 60.0001 29.1409C60.0001 12.4238 46.8976 0.0341797 30.0001 0.0341797Z" fill="url(#paint0_radial_216_2054)"/>
<path d="M11.9852 37.6445L20.7977 23.6649C21.1292 23.1385 21.5663 22.6867 22.0812 22.3378C22.5962 21.9888 23.1779 21.7505 23.7896 21.6377C24.4014 21.525 25.0298 21.5403 25.6354 21.6826C26.2409 21.825 26.8103 22.0914 27.3077 22.4649L34.3202 27.7223C34.6333 27.9566 35.0141 28.0827 35.4052 28.0813C35.7963 28.08 36.1763 27.9513 36.4877 27.7148L45.9527 20.53C47.2127 19.57 48.8627 21.0849 48.0227 22.4274L39.2027 36.3995C38.8712 36.9258 38.4342 37.3777 37.9192 37.7266C37.4042 38.0755 36.8225 38.3139 36.2108 38.4267C35.5991 38.5394 34.9706 38.5241 34.3651 38.3818C33.7595 38.2394 33.1901 37.973 32.6927 37.5995L25.6802 32.3421C25.3672 32.1078 24.9863 31.9817 24.5952 31.9831C24.2041 31.9844 23.8241 32.1131 23.5127 32.3496L14.0477 39.5344C12.7877 40.4944 11.1377 38.9869 11.9852 37.6445V37.6445Z" fill="white"/>
<defs>
<radialGradient id="paint0_radial_216_2054" cx="0" cy="0" r="1" gradientUnits="userSpaceOnUse" gradientTransform="translate(10.0501 60.0325) scale(66 65.9982)">
<stop stop-color="#0099FF"/>
<stop offset="0.6" stop-color="#A033FF"/>
<stop offset="0.9" stop-color="#FF5280"/>
<stop offset="1" stop-color="#FF7061"/>
</radialGradient>
</defs>
</svg>
