<svg width="60" height="61" viewBox="0 0 60 61" fill="none" xmlns="http://www.w3.org/2000/svg">
<path d="M16.7911 50.5655L17.6939 51.098C21.486 53.3385 25.8338 54.5237 30.2678 54.5257H30.2771C43.8936 54.5257 54.9752 43.4958 54.9808 29.9391C54.9832 23.3697 52.416 17.192 47.7518 12.5449C45.4642 10.2531 42.7426 8.43581 39.7448 7.1982C36.7469 5.96058 33.5322 5.32724 30.2868 5.33483C16.6598 5.33483 5.57778 16.3635 5.57293 29.9194C5.56622 34.5483 6.87557 39.0847 9.34961 43.0039L9.93738 43.9338L7.44127 53.0059L16.7911 50.5655ZM0.30481 60.0342L4.52181 44.7059C1.92108 40.2201 0.552845 35.1311 0.554461 29.9174C0.561328 13.607 13.8938 0.337891 30.2775 0.337891C38.2279 0.341912 45.6904 3.42212 51.3027 9.01347C56.915 14.6048 60.0029 22.0369 60.0001 29.9411C59.9928 46.2503 46.6583 59.5218 30.2771 59.5218H30.2641C25.2901 59.5198 20.4025 58.2775 16.0611 55.9208L0.30481 60.0342Z" fill="#B3B3B3"/>
<path d="M0.00012207 59.7305L4.21712 44.4022C1.61191 39.9056 0.243479 34.8047 0.249773 29.6137C0.256641 13.3033 13.5891 0.0341797 29.9728 0.0341797C37.9232 0.0382014 45.3857 3.11841 50.998 8.70976C56.6103 14.3011 59.6982 21.7332 59.6954 29.6374C59.6881 45.9465 46.3536 59.2181 29.9724 59.2181H29.9595C24.9854 59.2161 20.0978 57.9738 15.7564 55.6171L0.00012207 59.7305Z" fill="white"/>
<path d="M29.9816 5.03132C16.3546 5.03132 5.27263 16.06 5.26779 29.6159C5.26108 34.2448 6.57042 38.7812 9.04447 42.7004L9.63224 43.6306L7.13613 52.7028L16.4863 50.262L17.3892 50.7945C21.1812 53.035 25.5291 54.2197 29.963 54.2222H29.9723C43.5888 54.2222 54.6708 43.1923 54.6761 29.6356C54.6863 26.4044 54.0527 23.2033 52.8119 20.2175C51.571 17.2318 49.7476 14.5208 47.4471 12.2414C45.1594 9.94955 42.4378 8.13222 39.4398 6.8946C36.4419 5.65699 33.2271 5.02367 29.9816 5.03132V5.03132Z" fill="url(#paint0_linear_216_2061)"/>
<path fill-rule="evenodd" clip-rule="evenodd" d="M22.5441 17.2477C21.9874 16.0167 21.4016 15.9917 20.8728 15.9704L19.4493 15.9531C18.954 15.9531 18.1493 16.1381 17.469 16.8781C16.7887 17.6181 14.8695 19.4065 14.8695 23.0442C14.8695 26.6818 17.5308 30.1967 17.9017 30.6906C18.2725 31.1845 23.0393 38.8872 30.5882 41.8508C36.8614 44.3137 38.138 43.8238 39.5001 43.7007C40.8623 43.5777 43.8941 41.9123 44.5125 40.1858C45.131 38.4593 45.1314 36.9801 44.946 36.6708C44.7606 36.3616 44.2653 36.1778 43.522 35.8078C42.7787 35.4378 39.1281 33.6493 38.4474 33.4024C37.7667 33.1555 37.2718 33.0328 36.7762 33.7728C36.2805 34.5128 34.859 36.1774 34.4255 36.6708C33.992 37.1643 33.5594 37.2262 32.8161 36.8566C32.0728 36.487 29.6813 35.706 26.8439 33.1873C24.6362 31.2275 23.146 28.8072 22.7121 28.0676C22.2782 27.3281 22.6661 26.9275 23.0385 26.5591C23.3718 26.2277 23.781 25.6957 24.153 25.2641C24.5251 24.8326 24.6475 24.5241 24.8947 24.0315C25.142 23.5388 25.0188 23.1061 24.8329 22.7365C24.6471 22.3669 23.2041 18.7104 22.5441 17.2481" fill="white"/>
<defs>
<linearGradient id="paint0_linear_216_2061" x1="29.469" y1="7.98324" x2="29.7172" y2="50.0199" gradientUnits="userSpaceOnUse">
<stop stop-color="#57D163"/>
<stop offset="1" stop-color="#23B33A"/>
</linearGradient>
</defs>
</svg>
