<svg width="191" height="263" viewBox="0 0 191 263" fill="none" xmlns="http://www.w3.org/2000/svg">
<path d="M85.5932 262.467C87.3523 262.201 89.0936 261.768 90.8699 261.664C91.3891 261.635 91.8557 262.092 92.3759 262.078C98.1999 261.901 104.033 261.694 109.828 261.083C113.606 260.69 117.295 259.681 121.044 259.066C124.105 258.564 127.169 258.057 130.256 257.742C130.454 257.722 130.564 258.017 130.754 258.076C130.919 258.13 131.106 258.126 131.273 258.076C131.612 257.983 131.895 257.688 132.245 257.673C135.03 257.55 137.826 257.5 140.608 257.668C143.087 257.82 145.526 258.386 147.997 258.642C148.647 258.706 149.308 258.706 149.959 258.642C152.255 258.401 154.52 257.894 156.822 257.727C157.185 257.702 157.494 258.101 157.858 258.076C159.824 257.938 161.746 257.377 163.713 257.235C164.075 257.21 164.386 257.624 164.747 257.584C166.248 257.407 167.684 256.861 169.174 256.605C171.42 256.226 173.702 256.073 175.945 255.674C176.333 255.606 176.694 255.409 177.03 255.202C178.486 254.311 179.976 253.455 181.309 252.387C182.414 251.506 183.404 250.477 184.309 249.389C184.875 248.71 185.347 247.942 185.695 247.125C186.111 246.156 186.153 245.048 186.58 244.084C186.841 243.493 187.483 243.124 187.729 242.523C188.634 240.323 189.803 238.128 190.005 235.756C190.27 232.636 189.34 229.53 189.098 226.405C189.059 225.912 189.069 225.405 189.164 224.918C189.231 224.574 189.517 224.293 189.576 223.949C189.657 223.461 189.676 222.954 189.576 222.477C189.298 221.138 188.767 219.863 188.451 218.535C188.206 217.506 188.019 216.458 187.896 215.404C187.25 209.892 186.58 204.379 186.145 198.842C186.015 197.199 185.969 195.53 186.202 193.896C186.788 189.767 188.061 185.755 188.592 181.616C188.863 179.505 188.793 177.344 188.598 175.223C188.441 173.5 187.8 171.856 187.54 170.143C186.826 165.433 186.354 160.689 185.677 155.974C185.56 155.161 185.215 154.384 185.16 153.562C185.062 152.08 185.071 150.589 185.221 149.113C185.258 148.753 185.604 148.492 185.712 148.153C185.943 147.419 186.123 146.666 186.232 145.908C186.755 142.232 187.298 138.56 187.607 134.859C187.758 133.063 187.731 131.251 187.607 129.45C187.571 128.933 187.176 128.49 187.129 127.973C187.012 126.664 187.122 125.35 187.122 124.036C187.122 123.544 187.046 123.047 187.129 122.559C187.189 122.215 187.474 121.934 187.541 121.59C187.636 121.103 187.635 120.596 187.607 120.103C186.988 108.995 186.496 97.8815 185.599 86.7927C185.495 85.5081 184.803 84.3269 184.61 83.0521C183.999 79.0113 183.419 74.9557 183.192 70.8756C182.945 66.4558 183.072 62.0213 183.192 57.5916C183.202 57.2422 183.562 56.9616 183.578 56.6073C183.587 56.4153 183.287 56.3169 183.258 56.1299C183.155 55.4753 183.125 54.8059 183.192 54.1513C183.591 50.1991 184.224 46.2764 184.654 42.3291C184.69 41.9994 184.667 41.6597 184.588 41.3349C184.505 40.9953 184.203 40.7148 184.176 40.3653C184.064 38.8937 183.984 37.4024 184.176 35.9406C184.311 34.912 185.04 34.0113 185.146 32.9777C185.348 31.0139 185.298 29.0107 185.089 27.0469C184.841 24.6992 184.283 22.3959 183.78 20.0925C183.54 18.9949 183.226 17.9121 182.865 16.8539C182.583 16.027 182.283 15.1952 181.852 14.4373C181.446 13.7236 180.926 13.074 180.372 12.4637C179.263 11.2431 178.235 9.89936 176.877 8.96914C174.58 7.39416 172 6.27696 169.515 5.01698C167.189 3.84067 164.897 2.5659 162.449 1.67013C160.976 1.13365 159.402 0.803893 157.834 0.749753C150.129 0.498741 142.415 0.626713 134.706 0.75468C134.353 0.759602 134.073 1.11891 133.721 1.13859C133.53 1.14844 133.419 0.838317 133.228 0.843239C133.036 0.84816 132.935 1.11395 132.749 1.16317C132.427 1.25176 132.085 1.23701 131.752 1.23701C131.091 1.23701 130.423 1.26653 129.77 1.16317C129.58 1.13364 129.483 0.833395 129.291 0.843239C128.939 0.858004 128.658 1.21731 128.305 1.22715C125.355 1.34528 122.398 1.3502 119.449 1.22715C118.927 1.20747 118.462 0.798969 117.94 0.808812C110.406 0.941701 102.884 1.488 95.3517 1.65042C95.141 1.65534 95.0278 1.30593 94.8171 1.31577C90.7153 1.49296 86.6347 2.04909 82.5323 2.20659C82.1814 2.22135 81.9004 1.84236 81.5495 1.8276C81.3575 1.82268 81.2581 2.10815 81.0701 2.14753C80.7408 2.22136 80.3884 2.22136 80.0601 2.14753C79.8632 2.10323 79.7609 1.78827 79.5605 1.80795C77.9167 1.95561 76.323 2.48713 74.6791 2.63478C74.4788 2.65447 74.374 2.34442 74.1795 2.29521C73.8591 2.20661 73.5171 2.20661 73.1858 2.22629C69.5791 2.48223 65.9867 2.94978 62.3756 3.12696C62.1748 3.13681 62.0665 2.8563 61.8755 2.79231C61.7116 2.73817 61.5236 2.74309 61.3568 2.79231C61.0177 2.88583 60.7342 3.16634 60.3842 3.19587C59.2414 3.30415 58.0843 3.30908 56.9419 3.19587C56.4261 3.14666 55.9777 2.77754 55.4624 2.7234C54.4845 2.61512 53.4912 2.62496 52.5123 2.7234C52.1614 2.75785 51.8794 3.10732 51.5265 3.10732C51.1736 3.10732 50.893 2.73324 50.5406 2.7234C46.7705 2.60036 42.9891 2.47731 39.2254 2.71847C35.6281 2.9498 32.0612 3.55026 28.5052 4.13596C27.3063 4.33283 26.13 4.67244 24.9832 5.07111C23.6189 5.54852 22.3485 6.26707 20.9901 6.75925C18.7748 7.56151 16.4586 8.07834 14.2719 8.95442C12.5704 9.63855 10.8807 10.4063 9.35794 11.43C8.37358 12.0896 7.55755 13.0001 6.84192 13.9451C6.01456 15.0377 5.39245 16.2731 4.76738 17.4937C3.65653 19.6642 2.52993 21.8298 1.6381 24.0988C1.45451 24.5614 1.50718 25.1028 1.57756 25.5999C1.62727 25.9494 1.94127 26.225 1.98951 26.5695C2.10271 27.3865 2.14799 28.2232 2.05546 29.0403C1.86942 30.694 1.32803 32.2936 1.15724 33.9473C1.13657 34.1491 1.44762 34.2524 1.49782 34.4444C1.60659 34.8726 1.39741 35.3795 1.62037 35.7536C1.86351 36.167 2.31534 36.4722 2.77405 36.6051C3.06296 36.6887 3.57679 36.0391 3.63635 36.3344C4.71865 41.7041 5.43379 47.1426 5.99783 52.5911C6.71247 59.4914 7.12541 66.4164 7.46944 73.3463C7.61611 76.2896 7.65598 79.2525 7.46944 82.1957C7.16774 86.9748 6.38124 91.7047 6.00669 96.4788C5.89103 97.9504 5.88069 99.4319 6.00029 100.903C6.16911 102.98 6.52741 105.043 6.86898 107.095C7.18152 108.98 7.81791 110.816 7.96162 112.721C8.1836 115.664 8.09746 118.627 7.96113 121.575C7.93701 122.092 7.51769 122.535 7.48373 123.052C7.35477 125.015 7.46009 126.989 7.47634 128.958C7.48175 129.617 7.44238 130.287 7.54918 130.941C7.60628 131.286 7.94538 131.561 7.96113 131.911C8.08417 134.697 8.10091 137.492 7.96162 140.273C7.65056 146.509 7.33853 152.75 6.61109 158.951C5.70104 166.713 3.75841 174.337 3.05361 182.118C2.56438 187.512 3.68605 192.995 3.03785 198.38C2.91382 199.408 1.49536 199.778 0.830913 200.58C0.667509 200.777 0.601074 201.052 0.601074 201.308C0.601074 201.564 0.677352 201.835 0.830913 202.037C1.22466 202.558 1.86696 202.878 2.20656 203.434C2.92416 204.616 3.42274 205.915 3.96315 207.19C4.03157 207.347 4.02369 207.534 4.02418 207.712C4.02517 209.685 4.20875 211.679 3.96709 213.642C3.72051 215.641 2.80259 217.521 2.5688 219.519C2.49104 220.188 2.94434 220.813 3.05115 221.473C3.43209 223.84 3.55366 226.252 4.03108 228.6C4.19005 229.382 4.79691 230.027 4.94948 230.81C5.10944 231.636 5.08187 232.503 4.95095 233.33C4.79395 234.324 4.26388 235.229 4.09556 236.223C3.95676 237.04 3.92181 237.887 4.03797 238.709C4.24813 240.195 4.80774 241.613 5.06662 243.094C5.53616 245.772 5.6597 248.508 6.22226 251.166C6.42012 252.101 6.8995 252.963 7.33262 253.814C7.60185 254.341 7.87352 254.907 8.32042 255.295C9.27476 256.132 10.266 257.028 11.4689 257.432C15.5323 258.795 19.7553 259.637 23.9462 260.532C24.147 260.577 24.272 260.158 24.4708 260.212C25.0053 260.35 25.3607 260.951 25.906 261.039C26.4248 261.118 26.9174 260.636 27.4406 260.68C29.0929 260.828 30.6812 261.428 32.3314 261.6C33.6362 261.733 34.9602 261.709 36.2669 261.59C36.7822 261.546 37.2286 261.123 37.7454 261.123C38.2622 261.123 38.7071 261.566 39.2239 261.59C41.8443 261.723 44.474 261.714 47.0949 261.59C47.4566 261.576 47.7406 261.172 48.1024 261.187C51.0515 261.315 53.9716 261.861 56.9193 262.014C57.1211 262.024 57.2249 261.728 57.4198 261.674C57.7407 261.586 58.0877 261.551 58.415 261.61C58.762 261.669 59.0465 261.935 59.3885 262.019C59.7119 262.097 60.0525 262.088 60.3857 262.092C61.3691 262.107 62.3588 262.191 63.3368 262.083C63.8521 262.029 64.299 261.625 64.8173 261.61C68.5859 261.467 72.3683 261.369 76.1325 261.605C77.4836 261.694 78.7356 262.388 80.0759 262.58C80.8919 262.693 81.7301 262.619 82.5466 262.511C82.7371 262.486 82.834 262.181 83.026 262.191C83.3784 262.206 83.6609 262.54 84.0123 262.575L85.5932 262.467ZM85.5268 260.547C84.853 260.547 84.1733 260.631 83.5054 260.542C83.3149 260.518 83.2184 260.222 83.026 260.222C82.8335 260.222 82.7366 260.513 82.5466 260.542C81.895 260.645 81.2241 260.685 80.5685 260.611C77.2739 260.237 74.0353 259.302 70.721 259.208C68.079 259.135 65.4763 259.883 62.8432 260.119C62.0271 260.188 61.2032 260.178 60.3857 260.124C56.2794 259.853 52.1914 259.302 48.0797 259.154C47.5634 259.135 47.1185 259.597 46.6027 259.622C44.3111 259.755 42.0082 259.745 39.7161 259.622C39.3642 259.607 39.0851 259.297 38.7426 259.213C38.4192 259.135 38.0752 259.095 37.7474 259.149C37.236 259.233 36.7832 259.577 36.2669 259.622C34.9602 259.74 33.6352 259.774 32.3314 259.632C30.8421 259.469 29.4099 258.957 27.9323 258.711C27.5947 258.657 27.2388 258.647 26.9047 258.721C26.7112 258.765 26.6034 259.1 26.411 259.051C25.8765 258.913 25.5172 258.332 24.9758 258.224C24.6219 258.155 24.3074 258.588 23.9476 258.564C23.4269 258.524 22.98 258.16 22.4731 258.032C19.1966 257.22 15.8109 256.811 12.6068 255.743C11.5294 255.384 10.6425 254.577 9.79696 253.819C9.36286 253.43 9.09807 252.879 8.8318 252.362C8.48678 251.688 8.11321 251.009 7.97196 250.265C7.43203 247.421 7.26618 244.517 6.79959 241.657C6.6101 240.496 6.16468 239.383 6.00669 238.217C5.91761 237.557 5.94222 236.878 6.06428 236.223C6.24884 235.234 6.76267 234.324 6.91967 233.33C7.05059 232.503 7.06636 231.636 6.91919 230.81C6.75038 229.865 6.18682 229.018 5.98404 228.083C5.40917 225.42 4.60791 222.762 4.59118 220.041C4.58035 218.264 5.03217 216.423 5.90284 214.878C6.1632 214.41 6.30446 215.916 6.72626 216.241C6.92707 216.394 7.24502 216.197 7.4665 216.074C7.65451 215.97 7.79921 215.788 7.89519 215.596C7.97148 215.444 7.96063 215.257 7.96113 215.089C7.9631 214.42 8.04381 213.741 7.90403 213.091C7.40841 210.783 6.54711 208.568 6.06428 206.26C5.91367 205.541 5.39146 204.443 6.01406 204.055C7.49553 203.119 9.43964 203.307 11.1711 203.036C11.4994 202.987 11.8425 203.026 12.1648 203.105C12.5074 203.188 12.7879 203.479 13.1384 203.513C14.1154 203.617 15.1056 203.582 16.086 203.518C21.8008 203.124 27.5322 202.859 33.2149 202.14C33.5112 202.106 33.5235 201.608 33.5466 201.308C33.5643 201.077 33.493 200.811 33.3296 200.649C33.209 200.526 32.9924 200.58 32.8216 200.58C31.0178 200.555 29.2105 200.467 27.4096 200.57C23.6272 200.791 19.866 201.289 16.086 201.549C15.1056 201.613 14.1154 201.648 13.1384 201.544C12.7879 201.51 12.5074 201.22 12.1648 201.136C11.8415 201.057 11.4974 201.018 11.1697 201.072C10.6583 201.156 10.2055 201.495 9.68918 201.544C8.53649 201.658 7.26125 202.042 6.21389 201.549C5.47365 201.2 5.1872 200.181 5.08089 199.369C4.78116 197.08 4.92734 194.757 5.02283 192.449C5.03759 192.1 5.40869 191.819 5.40869 191.465C5.40869 191.11 5.03759 190.83 5.02283 190.48C4.90766 187.695 4.78116 184.894 5.02233 182.118C5.38064 177.989 6.15335 173.909 6.81582 169.824C7.18693 167.53 7.87549 165.291 8.12256 162.982C8.91448 155.595 9.49919 148.182 9.93034 140.765C10.1016 137.822 10.0662 134.859 9.92985 131.911C9.90573 131.394 9.48641 130.951 9.45245 130.434C9.3235 128.471 9.42783 126.497 9.44506 124.528C9.44949 124.031 9.42193 123.524 9.5179 123.037C9.58582 122.692 9.91459 122.417 9.92985 122.067C10.0554 119.114 10.2148 116.146 9.93674 113.208C9.56121 109.231 8.44003 105.358 7.97541 101.391C7.78444 99.7665 7.85089 98.1128 7.97541 96.4788C8.33913 91.7047 9.12169 86.9699 9.43816 82.1957C9.6119 79.5773 9.54595 76.9491 9.44506 74.3258C9.38846 72.8591 9.06609 71.417 8.96667 69.9552C8.57341 64.1721 8.50745 58.3643 7.96655 52.5911C7.63728 49.0769 6.81484 45.6218 6.3581 42.1224C5.8359 38.121 5.69563 34.0703 5.0307 30.0886C4.77378 28.5481 3.99466 27.1405 3.60338 25.6295C3.51675 25.2948 3.47737 24.9108 3.60682 24.5909C4.39873 22.6222 5.36784 20.7274 6.33694 18.8423C6.93937 17.6709 7.5226 16.47 8.31846 15.4216C9.03458 14.4766 9.86193 13.5858 10.8345 12.9066C12.0379 12.065 13.4032 11.4695 14.7641 10.9231C18.3274 9.49089 21.9558 8.22598 25.5871 6.97584C26.9834 6.49351 28.4019 6.0653 29.8405 5.73061C30.1737 5.65187 30.5335 5.66172 30.8677 5.74047C31.0636 5.78476 31.1669 6.10465 31.3668 6.08004C34.0058 5.74536 36.5725 4.88407 39.2254 4.68719C42.8227 4.42142 46.4427 4.56415 50.0485 4.69212C50.3994 4.70196 50.6696 5.09568 51.021 5.09568C51.5363 5.09568 51.9994 4.73642 52.5123 4.69212C53.4917 4.59861 54.4845 4.58384 55.4624 4.69212C55.9777 4.74626 56.4261 5.11538 56.9419 5.1646C58.0843 5.2778 59.2409 5.26795 60.3842 5.1646C60.7356 5.13506 61.0177 4.80037 61.3701 4.78068C61.5605 4.77084 61.6659 5.03662 61.8475 5.09568C62.0183 5.14982 62.2068 5.12523 62.3854 5.11046C65.9872 4.825 69.5821 4.45587 73.1858 4.19501C73.5171 4.17533 73.8591 4.17533 74.1795 4.26393C74.374 4.31314 74.4788 4.62319 74.6791 4.6035C76.323 4.45585 77.9167 3.92433 79.5605 3.77667C79.7609 3.75699 79.8603 4.09164 80.0601 4.11625C80.8762 4.22945 81.7074 4.21469 82.5304 4.18516C85.3058 4.07688 88.0723 3.78651 90.8487 3.70776C104.966 3.31894 119.086 2.97934 133.207 2.79231C133.408 2.78739 133.516 3.06298 133.707 3.12696C133.871 3.1811 134.059 3.17618 134.226 3.12696C134.565 3.03345 134.847 2.72832 135.199 2.7234C142.579 2.59051 149.965 2.46254 157.342 2.71847C158.909 2.77261 160.501 3.05809 161.953 3.6487C166.07 5.32211 169.978 7.47785 173.945 9.48102C174.465 9.7468 174.97 10.0569 175.403 10.4506C176.627 11.5482 177.788 12.7245 178.895 13.9402C179.443 14.5407 179.944 15.1953 180.356 15.8941C180.616 16.3371 180.73 16.8539 180.893 17.3411C181.196 18.2467 181.541 19.1376 181.755 20.0678C182.285 22.3811 182.85 24.6894 183.12 27.0469C183.327 28.8483 183.374 30.6841 183.178 32.4855C183.066 33.5191 182.327 34.4149 182.207 35.4485C181.999 37.24 182.085 39.0561 182.208 40.8575C182.243 41.3694 182.718 41.8173 182.678 42.334C182.386 46.1288 181.604 49.8693 181.223 53.6591C181.14 54.4761 181.181 55.3129 181.289 56.1299C181.313 56.3169 181.618 56.4153 181.609 56.6073C181.593 56.9616 181.233 57.2422 181.223 57.5916C181.103 62.0213 180.982 66.4558 181.223 70.8756C181.445 74.9459 182.009 78.9916 182.61 83.0177C182.815 84.3859 183.526 85.6607 183.636 87.0387C184.537 98.2063 185.011 109.408 185.638 120.596C185.657 120.925 185.651 121.265 185.573 121.59C185.49 121.929 185.186 122.21 185.161 122.559C185.045 124.198 185.137 125.842 185.153 127.481C185.158 127.978 185.13 128.485 185.226 128.973C185.294 129.317 185.611 129.593 185.638 129.942C185.75 131.414 185.772 132.9 185.639 134.367C185.286 138.25 184.871 142.129 184.183 145.963C184.07 146.593 183.522 147.065 183.258 147.646C183.188 147.803 183.194 147.985 183.192 148.153C183.172 150.122 183.072 152.09 183.192 154.054C183.231 154.709 183.572 155.319 183.668 155.964C184.366 160.684 184.83 165.433 185.572 170.148C185.815 171.694 186.48 173.17 186.623 174.735C186.833 177.019 186.914 179.342 186.623 181.616C186.114 185.593 184.782 189.432 184.233 193.404C183.963 195.363 184.027 197.366 184.176 199.335C184.592 204.862 185.217 210.374 185.927 215.867C186.115 217.334 186.503 218.766 186.867 220.193C187.064 220.971 187.466 221.689 187.607 222.477C187.695 222.964 187.644 223.476 187.541 223.963C187.502 224.15 187.248 224.244 187.195 224.426C187.103 224.746 187.123 225.09 187.123 225.425C187.123 225.922 187.099 226.429 187.195 226.916C187.263 227.261 187.594 227.537 187.607 227.886C187.713 230.849 187.944 233.836 187.548 236.775C187.322 238.453 186.428 239.974 185.768 241.529C185.572 241.992 185.182 242.356 184.99 242.819C184.367 244.32 184.109 245.983 183.331 247.411C182.908 248.188 182.048 248.636 181.462 249.306C181.324 249.458 181.341 249.734 181.176 249.862C179.437 251.205 177.87 252.938 175.801 253.681C172.935 254.715 169.765 254.523 166.765 255.045C166.076 255.168 165.442 255.546 164.746 255.61C164.548 255.63 164.439 255.345 164.251 255.281C164.08 255.222 163.89 255.246 163.713 255.266C161.757 255.522 159.825 255.98 157.858 256.108C157.499 256.132 157.214 255.684 156.854 255.709C154.553 255.857 152.294 256.447 149.993 256.615C149.639 256.639 149.334 256.285 148.978 256.285C148.786 256.285 148.686 256.565 148.499 256.605C148.164 256.678 147.811 256.659 147.471 256.615C145.341 256.354 143.242 255.817 141.1 255.699C137.498 255.507 133.877 255.453 130.279 255.699C127.04 255.925 123.847 256.59 120.643 257.112C116.856 257.732 113.126 258.726 109.31 259.125C103.698 259.71 98.0483 259.883 92.4084 260.06C91.8818 260.075 91.3955 259.661 90.8699 259.696L85.5268 260.547ZM115.614 230.967C118.462 230.588 121.34 230.386 124.157 229.82C126.479 229.358 128.731 228.585 130.992 227.886C131.588 227.699 132.187 227.487 132.72 227.162C133.01 226.985 133.491 226.734 133.408 226.405C133.275 225.878 132.782 225.189 132.241 225.258C130.128 225.528 128.246 226.744 126.198 227.33C124.793 227.733 123.348 227.994 121.903 228.216C119.453 228.59 116.994 228.929 114.522 229.112C112.887 229.23 111.231 229.313 109.604 229.116C106.332 228.718 103.078 228.127 99.8792 227.34C97.1688 226.67 94.6119 225.469 91.9143 224.751C91.271 224.583 90.5825 224.652 89.9185 224.697C89.6867 224.711 89.3653 224.711 89.2594 224.918C89.1438 225.145 89.2959 225.445 89.4233 225.661C89.5715 225.917 89.7757 226.188 90.0538 226.286C93.0837 227.394 96.1362 228.467 99.2645 229.249C102.503 230.066 105.794 230.731 109.115 231.08L115.614 230.967ZM158.991 208.218C159.098 207.972 159.151 207.692 159.311 207.47C159.558 207.131 159.937 206.904 160.192 206.57C161.053 205.452 161.888 204.311 162.654 203.124C163.371 202.012 164.067 200.885 164.636 199.694C165.418 198.055 166.065 196.352 166.697 194.649C167.207 193.276 167.661 191.883 168.059 190.475C168.305 189.609 168.488 188.723 168.626 187.837C169.1 184.786 169.691 181.744 169.896 178.668C170.113 175.395 170.119 172.097 169.889 168.829C169.695 166.063 169.104 163.337 168.627 160.605C168.329 158.902 167.993 157.204 167.564 155.531C167.319 154.571 167.017 153.616 166.609 152.715C165.706 150.712 164.762 148.719 163.639 146.829C162.126 144.289 160.386 141.887 158.716 139.446C158.253 138.767 157.781 138.093 157.239 137.477C156.536 136.675 155.684 136.011 154.99 135.204C154.694 134.859 154.586 134.377 154.286 134.032C153.509 133.141 152.662 132.309 151.779 131.527C151.165 130.981 150.505 130.479 149.807 130.045C148.326 129.125 146.864 128.141 145.254 127.476C141.222 125.803 137.069 124.435 132.932 123.042C131.578 122.589 130.14 122.402 128.79 121.934C127.921 121.634 127.16 121.073 126.3 120.743C125.352 120.379 124.387 120.01 123.382 119.857C122.41 119.715 121.412 119.764 120.434 119.862C120.082 119.897 119.8 120.231 119.447 120.246C119.255 120.256 119.156 119.961 118.968 119.926C118.482 119.828 117.975 119.808 117.482 119.857C115.379 120.079 113.287 120.389 111.202 120.743C107.964 121.29 104.735 121.89 101.519 122.554C99.3112 123.012 97.1142 123.524 94.9358 124.105C90.8339 125.193 86.7262 126.275 82.6815 127.565C81.7207 127.87 80.8865 128.49 79.9523 128.869C78.1377 129.607 76.2314 130.114 74.4428 130.917C71.7595 132.118 69.1568 133.491 66.5552 134.859C65.3415 135.499 64.1499 136.183 63.0021 136.936C62.6916 137.138 62.504 137.497 62.2019 137.709C61.3499 138.319 60.3493 138.718 59.5539 139.402C58.1266 140.622 56.8056 141.971 55.5697 143.384C54.5805 144.516 53.8363 145.844 52.8972 147.016C52.5202 147.488 51.9704 147.808 51.6303 148.31C50.5529 149.885 49.5592 151.524 48.6654 153.212C47.9094 154.64 47.2814 156.136 46.6908 157.637C46.1405 159.04 45.5957 160.452 45.2467 161.919C44.3554 165.655 43.4281 169.405 42.9773 173.224C42.649 176 42.7903 178.825 42.9207 181.621C42.9379 181.985 43.1466 182.354 43.4153 182.605C43.5999 182.778 43.9036 182.797 44.1551 182.773C44.2954 182.758 44.4681 182.65 44.4834 182.507C44.8682 178.949 44.9111 175.351 45.3412 171.797C45.6375 169.346 46.114 166.92 46.6603 164.513C47.0284 162.894 47.526 161.299 48.0812 159.734C48.6881 158.021 49.323 156.308 50.142 154.689C51.0038 152.981 52.0123 151.347 53.1088 149.782C54.6887 147.528 56.3543 145.323 58.1591 143.246C58.5804 142.759 59.2512 142.557 59.7409 142.138C60.3764 141.602 60.8479 140.873 61.5226 140.386C63.294 139.097 65.1318 137.891 67.0473 136.828C69.8907 135.253 72.799 133.786 75.7781 132.487C79.1077 131.035 82.494 129.696 85.953 128.584C90.2163 127.22 94.5583 126.098 98.916 125.07C102.334 124.267 105.804 123.691 109.263 123.091C111.993 122.614 114.731 122.166 117.482 121.826C117.974 121.767 118.482 121.797 118.968 121.895C119.156 121.929 119.255 122.215 119.447 122.215C119.638 122.215 119.744 121.954 119.926 121.9C120.091 121.846 120.301 121.806 120.445 121.905C120.764 122.112 120.847 122.658 121.218 122.751C124.478 123.568 127.883 123.736 131.135 124.592C134.686 125.527 138.114 126.881 141.574 128.111C142.659 128.5 143.746 128.899 144.761 129.44C146.498 130.37 148.258 131.296 149.81 132.511C151.29 133.663 152.53 135.105 153.794 136.493C154.143 136.877 154.296 137.404 154.627 137.802C155.121 138.398 155.752 138.86 156.255 139.446C156.79 140.066 157.267 140.741 157.732 141.415C159.072 143.364 160.484 145.274 161.67 147.321C162.959 149.551 164.238 151.81 165.143 154.221C165.913 156.269 166.25 158.454 166.658 160.605C167.176 163.332 167.737 166.063 167.92 168.829C168.159 172.427 168.103 176.045 167.92 179.647C167.825 181.528 167.413 183.378 167.09 185.234C166.821 186.779 166.598 188.344 166.143 189.845C165.285 192.685 164.326 195.505 163.161 198.237C162.501 199.783 161.62 201.23 160.687 202.627C159.619 204.227 158.143 205.541 157.172 207.2C156.975 207.539 157.064 208.081 157.331 208.366C157.559 208.612 157.996 208.465 158.328 208.435L158.991 208.218ZM3.31298 201.466C3.09199 201.412 2.65642 201.535 2.65051 201.308C2.6451 201.087 3.08608 201.097 3.30461 201.146" fill="white"/>
<path d="M165.887 194.487L165.51 194.634L167.05 194.861L172.136 195.013L172.491 195.136L173.402 194.984L177.073 195.427L177.649 195.353L177.94 195.515L178.403 195.407L178.632 195.599L179.786 195.712L180.128 195.693L180.331 195.476L180.443 195.579L181.451 195.53L181.419 195.373L181.466 195.55L181.874 195.176" stroke="white" stroke-width="2" stroke-linejoin="round"/>
<path d="M19.7267 23.3753L19.9541 22.7945L20.0791 24.1332L19.3231 31.0681L19.1971 36.3344L19.3605 37.9586L19.6164 38.8642L21.0157 42.5408L22.1522 43.6285L23.172 44.037L23.3742 43.9386L23.8945 44.1256H25.0265L28.6967 43.535L29.3528 43.7073L29.8631 43.5645L32.0238 44.1699L33.4492 44.3815L34.3139 44.288L34.4626 44.4554L34.9543 44.1945L38.3011 43.6285L39.1348 43.2692L40.0518 43.1954L41.7591 42.7278L43.2647 42.718L44.9677 43.0773L45.6242 43.0231L47.0151 43.3036L48.2864 43.348L51.0786 43.0723L51.716 43.1462L53.1029 42.7918L56.5201 42.4423L59.9792 42.4867L66.537 41.9649L68.3502 42.1421L68.4712 42.0437L68.8044 42.2159L70.72 41.7878L71.0946 41.9256L71.3948 41.6844L71.7058 41.8517L73.1912 41.4974L73.5358 41.6056L74.4202 41.3694L74.8435 41.453L75.1142 41.266L75.315 41.394H76.6941L76.9318 41.1725L78.1012 40.9609L79.3947 40.4244L80.3402 40.3112L80.6153 40.449L80.885 40.2127L82.146 40.0651L82.302 39.8338L82.4885 39.9864L82.741 39.6172L84.4582 38.1801L85.1488 36.8413L87.2011 28.9222L87.5703 24.2218L87.5033 22.5779L87.1323 21.2983L86.8881 21.003L86.8281 21.0965L86.4122 20.3484L86.2714 20.3631L85.4859 19.5265L84.7196 18.0893L83.6186 16.9376L81.769 15.9631L81.4466 15.5447L81.1153 15.5102L80.3574 15.0279L78.8021 14.6243L78.6333 14.7277L78.2149 14.4127L77.7287 14.2552L77.1882 14.3044L76.5558 13.9402L75.8899 13.9304L74.2588 13.5415L72.9461 13.6055L72.171 13.3742L71.4529 13.5317L70.7422 13.3545L67.3259 13.6744L62.475 13.7679L61.7357 13.8516L61.4139 14.0386L60.3916 13.8811L54.1882 14.5505L52.8913 14.4324L52.0127 14.7129L50.457 14.4225L45.6085 14.5062L44.8953 14.329L44.2289 14.5111L43.563 14.3339L42.9896 14.5259L40.2417 14.5899L39.4311 14.8212L38.6348 14.7326L37.8606 15.1214L37.0421 15.087L34.5654 15.5939L28.8527 17.0655L27.4864 17.0163L27.1089 17.1837L26.823 16.9572L24.9477 16.849L23.2433 17.164L23.0066 17.0606L22.7925 17.3707L22.478 17.3608L21.5192 17.8235L21.2913 18.2074L21.0605 18.1483L20.054 19.7971L18.6739 23.8773L18.5391 24.965L18.7714 26.6483L19.5259 27.1405L19.7848 27.1355" stroke="white" stroke-width="2" stroke-linejoin="round"/>
<path d="M34.6971 23.1048L34.2527 22.9424L32.5837 23.474L31.5172 24.2516L30.6544 25.3689L30.1902 26.117L29.5706 28.5385L29.5356 31.2012L29.9063 32.6728L30.2444 33.3963L30.7794 34.0263L31.808 34.6366L32.4922 34.8679L34.0681 35.0353L34.9782 34.8876L36.155 34.3561" stroke="white" stroke-width="2" stroke-linejoin="round"/>
<path d="M25.2739 28.3073L26.5147 28.0415L28.0961 28.1843L29.5643 28.0858L31.7633 28.3811" stroke="white" stroke-width="2" stroke-linejoin="round"/>
<path d="M25.9919 32.1656L25.8462 32.0426L28.185 31.9589L30.8236 31.5701L32.3051 31.5405L31.8739 31.6291" stroke="white" stroke-width="2" stroke-linejoin="round"/>
<path d="M37.5317 25.0194L37.5987 24.7733L38.0943 24.3107L38.8114 24.0449L39.4069 24.1434L39.9336 24.4288L40.3116 24.9309L40.5375 25.5461L40.7181 27.5492L40.5271 30.714L40.2663 32.3086L39.8991 33.2733L39.9346 33.8245L41.6429 33.9624L43.3473 33.8245L43.5235 33.9033L42.899 34.1838" stroke="white" stroke-width="2" stroke-linejoin="round"/>
<path d="M45.1935 23.5234L45.1147 25.5167L45.2452 26.8062L45.6202 27.9284L46.1085 28.3911L47.0697 28.1352L48.5167 26.6488L49.2835 25.566L49.6438 24.0156L50.0828 31.0636L50.2846 32.2793L50.8664 33.8149" stroke="white" stroke-width="2" stroke-linejoin="round"/>
<path d="M54.3872 31.639L54.1766 31.5455L54.3942 31.5405L54.4493 32.9236L53.8207 36.103L53.6426 37.3286L53.8065 36.9988" stroke="white" stroke-width="2" stroke-linejoin="round"/>
<path d="M63.0342 22.1646L63.4865 21.2738L63.424 21.1507L62.9904 21.1064L61.7166 21.574L60.5413 22.4353L60.2051 22.8537L59.9536 23.72L59.8887 25.2851L60.2489 26.0972L60.8701 26.4811L62.0572 26.5106L63.3339 26.1218L64.1431 24.911L64.5103 23.779L64.4502 21.8299L64.309 22.1351" stroke="white" stroke-width="2" stroke-linejoin="round"/>
<path d="M64.4569 22.1792L64.4274 22.6221L64.8655 24.3202L65.4379 28.2182L65.3507 29.5619L64.9688 30.7874L64.0657 32.3033L63.165 32.8939L62.6054 32.9481L60.8458 32.4461L59.7207 32.8004" stroke="white" stroke-width="2" stroke-linejoin="round"/>
<path d="M72.3971 21.4807L72.0073 21.0919L70.4795 21.9237L70.2113 22.2288L69.7939 23.7595L70.1439 24.9457L70.8743 26.0727L71.7641 26.7372L72.5216 26.8455L73.9509 26.6683L74.668 26.309L74.9938 25.935L75.6125 24.9161L75.8256 24.2665L75.9162 22.0811L75.6883 21.4708L75.0617 21.0476L73.8771 20.8999L72.8208 20.9885L71.456 21.3724" stroke="white" stroke-width="2" stroke-linejoin="round"/>
<path d="M75.8684 22.0073L76.241 26.5649L76.0761 28.952L75.5485 30.6943L75.3482 30.9601L74.4603 31.4867L73.1506 31.9642L71.4348 32.1364L69.9775 32.0527L68.5039 32.2545" stroke="white" stroke-width="2" stroke-linejoin="round"/>
<path d="M96.7615 20.5504L97.0859 20.0483L96.7866 24.3648L96.7335 29.6459L96.5396 32.9435L96.5459 35.6357L96.9092 39.6224L96.829 44.3374" stroke="white" stroke-width="2" stroke-linejoin="round"/>
<path d="M97.3464 21.0817L97.1097 21.1162L97.2795 21.1211L97.594 20.7667L99.354 20.0137L101.114 20.1022L103.439 21.3573L105.04 21.6772L106.964 22.4007L108.562 23.2916L109.07 23.7887L109.267 24.2168L109.236 24.6057L108.696 25.7032L106.882 27.4948L103.04 29.9606L99.6936 32.6283L98.2102 33.3567L98.0803 33.5929L97.9011 33.4797L97.8337 33.6618L97.7968 33.4551L97.6171 33.6618L99.6818 32.9728L102.023 32.7759L104.423 33.1746L105.872 33.9325L106.459 34.0802L107.62 35.0694L108.881 36.8413L109.394 38.9232L109.539 41.2611L109.031 42.649L108.3 43.6088L107.166 44.3323L105.485 44.8097L102.444 45.3757L101.265 45.3363L99.196 45.6415L97.4227 45.1936L96.146 45.5184" stroke="white" stroke-width="2" stroke-linejoin="round"/>
<path d="M121.159 33.987L120.459 33.421L120.229 33.5342L119.926 33.3521L118.887 33.2881L117.141 33.7655L115.614 34.5874L114.03 35.9951L113.704 36.6152L113.216 37.8801L113.109 39.8095L113.718 40.8825L114.538 41.5665L115.01 41.7487L115.27 41.665L116.424 41.9111L117.604 41.3894L118.988 40.277L120.509 38.4658L121.354 36.5217L121.907 34.8926L121.991 34.2134L121.928 37.1566L122.12 39.6175L122.695 42.5509L122.928 42.861L123.382 42.5805" stroke="white" stroke-width="2" stroke-linejoin="round"/>
<path d="M125.902 42.4968L125.912 42.364L126.29 42.3787L127.136 41.4239L128.839 38.1902L130.264 33.5244L130.963 30.463L131.583 26.7372L131.613 25.2114L130.581 25.3837L130.002 25.7725L129.031 26.6388L128.848 27.0867L128.507 29.0652L128.132 34.1544L128.27 37.6095L128.647 39.4994L130.35 43.8798L130.993 45.0463L131.248 45.1792" stroke="white" stroke-width="2" stroke-linejoin="round"/>
<path d="M132.479 43.1267L132.526 42.354L133.321 41.2613L133.851 40.9857L134.466 40.2475L135.512 39.4747L136.628 38.2394L138.253 35.5717L138.976 34.0559L139.724 31.5998L140.24 28.7304L140.498 24.5715L140.316 23.3115L139.534 23.9071L138.59 25.3885L137.303 28.0364L136.555 30.7287L136.195 33.5833L136.094 36.8317L136.479 41.6403L136.821 43.5648L136.932 43.8207L137.11 43.8355" stroke="white" stroke-width="2" stroke-linejoin="round"/>
<path d="M148.309 44.9427L148.571 44.3127L149.37 43.7467L150.555 42.4522L154.057 38.4902L155.159 36.9792L161.631 27.1996L161.801 26.6582L161.428 26.6877L160.508 27.5392" stroke="white" stroke-width="2" stroke-linejoin="round"/>
<path d="M151.233 27.9378L150.37 27.416L150.208 27.4505L150.614 27.5489L150.816 27.7999L155.046 34.2426L158.9 42.7376L159.911 44.6472L160.616 46.931L160.987 47.0885L161.403 46.4289" stroke="white" stroke-width="2" stroke-linejoin="round"/>
<path d="M168.31 26.9046L168.286 26.5059L168.398 26.5305L168.546 29.8429L168.359 34.3512L167.332 41.355L167.485 42.5509L167.408 44.5935L167.589 45.1349L167.79 44.9872L168.048 45.194L168.292 45.1841L168.747 45.7403L169.161 45.8731L170.978 45.5188L171.523 45.7698L173.268 45.9815L175.471 46.0257L175.628 45.8781L176.487 46.2029L176.519 46.0848L177.151 46.0947L177.261 45.947L177.222 46.1242L177.125 45.8043" stroke="white" stroke-width="2" stroke-linejoin="round"/>
<path d="M110.194 229.495C117.216 229.043 124.236 228.541 131.263 228.137C131.758 228.112 132.263 228.103 132.749 228.206C132.937 228.245 133.022 228.546 133.215 228.546C133.728 228.55 134.205 228.206 134.718 228.211C134.911 228.211 134.995 228.511 135.184 228.55C135.67 228.654 136.176 228.614 136.673 228.624C137.493 228.639 138.319 228.718 139.132 228.614C139.646 228.555 140.094 228.162 140.611 228.147C140.961 228.137 141.241 228.472 141.582 228.55C141.905 228.629 142.25 228.678 142.576 228.614C143.908 228.373 145.182 227.852 146.52 227.645C147.173 227.546 147.848 227.606 148.498 227.714C148.688 227.743 148.782 227.989 148.964 228.053C149.132 228.112 149.325 228.103 149.501 228.068C150.611 227.832 151.73 227.615 152.804 227.251C153.489 227.02 154.142 226.68 154.749 226.286C155.097 226.06 155.434 225.775 155.633 225.41C156.556 223.727 157.527 222.039 158.084 220.198C158.682 218.229 158.835 216.152 159.067 214.105C159.142 213.441 159.092 212.766 159.002 212.107C158.949 211.713 158.672 211.368 158.642 210.975C157.905 201.559 157.505 192.114 156.701 182.704C156.681 182.463 156.419 182.251 156.184 182.202C153.642 181.661 151.085 181.045 148.488 180.952C147.315 180.907 146.237 181.67 145.071 181.803C144.709 181.843 144.399 181.434 144.035 181.454C137.306 181.784 130.597 182.433 123.873 182.847C123.379 182.876 122.873 182.881 122.387 182.778C122.189 182.738 122.089 182.428 121.887 182.438C118.439 182.615 115.014 183.112 111.569 183.339C110.747 183.393 109.915 183.378 109.098 183.27C108.908 183.245 108.811 182.95 108.619 182.95C108.427 182.95 108.328 183.235 108.14 183.27C107.652 183.368 107.144 183.403 106.652 183.334C106.14 183.265 105.691 182.866 105.174 182.866C104.658 182.866 104.214 183.349 103.699 183.329C100.58 183.201 97.4943 182.591 94.3768 182.423C94.0131 182.404 93.705 182.788 93.3408 182.773C86.4601 182.463 79.6016 181.754 72.7209 181.439C72.3572 181.424 72.0486 181.813 71.6854 181.788C67.2488 181.464 62.8463 180.765 58.4132 180.396C57.2704 180.302 56.1157 180.297 54.9729 180.401C54.6215 180.43 54.3395 180.77 53.9871 180.784C53.7951 180.794 53.6981 180.489 53.5077 180.464C52.6902 180.356 51.8559 180.317 51.0354 180.401C50.685 180.435 50.4045 180.725 50.0624 180.809C49.7386 180.888 49.396 180.922 49.0653 180.883C48.3885 180.804 47.7462 180.43 47.0655 180.455C44.6278 180.553 42.2062 180.912 39.7906 181.252C37.9725 181.508 36.1337 181.724 34.3727 182.241C33.3445 182.546 32.4069 183.117 31.5023 183.693C31.0903 183.954 30.7448 184.328 30.4663 184.732C29.9706 185.445 29.3239 186.149 29.1999 187.01C28.8701 189.289 29.0084 191.622 29.1388 193.921C29.1841 194.723 29.5793 195.466 29.724 196.254C30.0646 198.109 30.4535 199.965 30.5942 201.845C31.0997 208.593 31.0958 215.37 31.6608 222.108C31.7125 222.723 32.0703 223.294 32.4345 223.791C32.9271 224.465 33.659 224.938 34.194 225.578C34.4854 225.927 34.6075 226.4 34.8978 226.749C35.3551 227.3 35.8704 227.812 36.4211 228.27C36.9837 228.742 37.5074 229.377 38.2245 229.535C39.5199 229.82 40.8892 229.717 42.2048 229.545C43.0469 229.431 43.7851 228.91 44.6056 228.688C44.9319 228.605 45.2814 228.59 45.6166 228.629C47.759 228.895 49.8655 229.461 52.0198 229.594C52.5356 229.628 52.985 229.195 53.4963 229.126C53.9885 229.057 54.4984 229.087 54.9842 229.19C55.1727 229.23 55.2682 229.466 55.4503 229.53C55.6137 229.589 55.8056 229.589 55.9691 229.53C56.1512 229.466 56.2467 229.23 56.4352 229.19C56.9214 229.087 57.4274 229.116 57.9245 229.116C58.2577 229.116 58.5983 229.112 58.9217 229.19C59.2637 229.274 59.5433 229.574 59.8947 229.599C61.5297 229.717 63.182 229.776 64.8116 229.604C67.615 229.304 70.3634 228.614 73.1516 228.196C73.6487 228.122 74.1556 228.132 74.6586 228.132C80.0721 228.112 85.4871 228.014 90.8986 228.142C91.2515 228.147 91.5325 228.506 91.8849 228.526C92.0754 228.536 92.1807 228.27 92.3623 228.211C92.5331 228.157 92.7221 228.181 92.9003 228.196C95.7544 228.472 98.6106 228.733 101.456 229.087C102.377 229.205 103.269 229.51 104.193 229.604C105.007 229.682 105.835 229.692 106.648 229.599C106.999 229.559 107.282 229.215 107.635 229.215C107.988 229.215 108.27 229.564 108.621 229.599L110.194 229.495ZM110.135 226.587C109.626 226.587 109.109 226.665 108.606 226.582C108.26 226.528 107.986 226.178 107.635 226.178C107.284 226.178 107.01 226.528 106.663 226.582C106.011 226.685 105.342 226.71 104.685 226.651C103.781 226.562 102.91 226.247 102.008 226.144C98.4762 225.755 94.9438 225.297 91.3927 225.179C85.3271 224.977 79.2453 224.854 73.1855 225.184C70.1955 225.351 67.2995 226.326 64.3228 226.656C62.8556 226.818 61.3663 226.764 59.8947 226.646C59.5438 226.621 59.2637 226.321 58.9217 226.237C58.5983 226.159 58.2577 226.168 57.9245 226.163C56.2845 226.144 54.6407 226.055 53.0042 226.173C52.6434 226.198 52.3589 226.597 51.9977 226.577C49.5309 226.434 47.1098 225.676 44.6386 225.676C43.6168 225.681 42.7201 226.424 41.7126 226.592C40.8892 226.729 39.9624 226.941 39.2088 226.582C38.2215 226.114 37.5866 225.11 36.8666 224.288C36.0579 223.363 34.8088 222.575 34.6335 221.36C33.6536 214.568 33.9785 207.648 33.4789 200.801C33.1545 196.362 32.026 191.962 32.1628 187.512C32.1894 186.661 33.2215 186.129 33.9445 185.682C34.7404 185.184 35.6691 184.869 36.5993 184.751C41.7111 184.112 46.8558 183.747 51.9972 183.423C52.1975 183.408 52.3097 183.738 52.5105 183.738C52.7015 183.738 52.8068 183.477 52.9894 183.423C53.1543 183.368 53.3433 183.368 53.5082 183.423C53.6908 183.477 53.7961 183.747 53.9871 183.738C54.3385 183.723 54.62 183.354 54.9714 183.359C55.4857 183.363 55.9474 183.742 56.4612 183.757C56.6537 183.762 56.7418 183.467 56.9273 183.418C57.2473 183.329 57.5898 183.324 57.921 183.349C61.7325 183.644 65.5292 184.116 69.3431 184.377C77.1697 184.914 84.9998 185.416 92.8383 185.741C93.2015 185.755 93.5116 185.352 93.8728 185.391C94.8749 185.514 95.784 186.11 96.7875 186.218C97.1468 186.253 97.4328 185.839 97.7931 185.814C99.2642 185.701 100.749 185.691 102.219 185.814C102.736 185.854 103.188 186.203 103.699 186.287C104.027 186.341 104.373 186.307 104.694 186.223C104.88 186.174 104.982 185.893 105.174 185.903C105.526 185.918 105.808 186.267 106.16 186.287C107.96 186.4 109.771 186.415 111.57 186.287C112.087 186.253 112.539 185.898 113.051 185.814C113.378 185.76 113.724 185.795 114.046 185.878C114.232 185.928 114.333 186.203 114.525 186.198C114.877 186.184 115.158 185.814 115.51 185.819C116.03 185.824 116.497 186.267 117.017 186.233C118.661 186.12 120.247 185.544 121.888 185.391C122.088 185.372 122.188 185.701 122.387 185.731C123.038 185.839 123.707 185.839 124.365 185.8C126.244 185.677 128.107 185.372 129.985 185.239C134.665 184.909 139.346 184.564 144.035 184.407C144.236 184.397 144.344 184.678 144.535 184.742C144.699 184.796 144.887 184.791 145.054 184.742C145.393 184.648 145.675 184.353 146.027 184.338C148.548 184.215 152.747 181.956 153.6 184.333C156.644 192.803 154.903 202.288 155.697 211.255C155.739 211.733 156.049 212.156 156.108 212.633C156.187 213.283 156.197 213.947 156.108 214.592C155.873 216.305 155.611 218.023 155.141 219.686C154.83 220.784 154.331 221.832 153.777 222.826C153.575 223.191 153.221 223.447 152.903 223.712C152.692 223.89 152.472 224.106 152.2 224.141C147.858 224.756 143.497 225.248 139.131 225.666C138.153 225.76 137.16 225.77 136.183 225.661C135.667 225.607 135.219 225.238 134.703 225.189C133.561 225.076 132.404 225.086 131.261 225.189C130.909 225.218 130.627 225.558 130.275 225.573C130.075 225.583 129.962 225.243 129.762 225.258C127.295 225.44 124.864 225.991 122.397 226.158C120.434 226.291 118.459 226.272 116.496 226.154C116.135 226.134 115.85 225.725 115.489 225.75" fill="white"/>
<path d="M57.3131 194.703L56.566 194.054L56.3618 193.606L55.0944 192.843L53.957 192.4L52.2417 192.567L50.2257 193.808L47.9583 196.047L45.9517 198.631L44.6695 200.88L43.7934 202.8L42.9937 205.187L43.0099 207.052L44.4215 210.679L45.3773 212.555L47.0802 213.51L50.0033 213.918L52.2245 213.829L53.1744 213.51L55.3026 212.363L57.4908 210.709L59.9153 208.347L60.0241 207.81L59.3783 207.027L56.3258 204.655L54.7174 203.937L53.8029 203.897L52.6074 204.183L50.4015 206.004L50.1352 206.122L50.2533 205.895" stroke="white" stroke-width="2" stroke-linejoin="round"/>
<path d="M63.7217 207.407L64.1337 207.697L65.0688 207.668L65.4114 207.471L66.8087 206.078L67.1507 205.354L67.1502 204.877L66.5847 204.655L65.2337 204.646L63.7965 205.822L62.8353 207.357L62.4573 208.342L62.3003 210.65L62.4347 211.477L62.7029 212.053L63.263 212.658L63.8728 213.003L65.1864 213.357L66.6502 213.436L68.4072 212.87" stroke="white" stroke-width="2" stroke-linejoin="round"/>
<path d="M71.0907 211.59L70.9771 211.511L71.6661 207.918L71.859 205.679L71.6469 198.183" stroke="white" stroke-width="2" stroke-linejoin="round"/>
<path d="M67.0962 202.376L67.5239 202.46L67.8212 202.701L68.1583 202.593L72.9595 203.39" stroke="white" stroke-width="2" stroke-linejoin="round"/>
<path d="M91.1951 207.284L91.1581 207.382L90.8746 207.013L90.6222 207.116L89.9951 207.003L88.4807 207.372L87.8733 207.726L86.6808 209.05L86.3599 210.31L86.5937 210.734L87.4161 211.383L88.3694 211.364L88.9227 211.182L90.0675 210.355L90.7718 209.508L91.2526 208.529L91.48 207.628L91.4874 209.277L91.768 211.014L92.0667 212.048L92.8562 213.411" stroke="white" stroke-width="2" stroke-linejoin="round"/>
<path d="M106.004 199.153L105.578 198.144L105.746 199.226L106.161 207.274L106.801 211.57L106.657 212.377" stroke="white" stroke-width="2" stroke-linejoin="round"/>
<path d="M106.165 197.386L105.771 197.174L106.21 197.135L107.086 196.534L108.585 195.85L110.415 195.875L111.329 196.19L112.226 196.844L112.425 197.307L112.251 197.863L111.537 198.651L108.738 200.103L105.807 201.948L106.292 202.037L108.16 203.4L111.216 204.498L113.501 205.817L115.947 208.224L116.254 209.006L115.925 209.646L115.039 210.035L113.396 210.581L108.322 211.674L106.554 212.456L106.839 212.54" stroke="white" stroke-width="2" stroke-linejoin="round"/>
<path d="M124.796 207.874L125.23 207.126L124.18 206.776L122.921 207.136L122.006 207.687L121.288 208.809L120.845 210.04L120.8 210.985L121.113 211.9L121.396 212.092L122.234 212.205L123.637 211.59L125.362 209.537L125.569 209.124L125.708 208.12L125.924 210.197L126.403 211.56L127.117 212.559L128.495 213.135" stroke="white" stroke-width="2" stroke-linejoin="round"/>
<path d="M130.476 213.46L130.672 213.126L133.101 211.063L134.47 209.336L135.268 207.766L135.707 206.368L135.72 205.059L135.361 203.627L134.985 202.706L134.799 202.613L134.495 202.755L134.18 203.425L133.374 206.339L132.86 209.543L132.775 211.211L132.878 212.639L133.326 213.834L134.245 214.43L134.988 214.361" stroke="white" stroke-width="2" stroke-linejoin="round"/>
<path d="M137.128 214.691L137.071 214.583L137.75 214.218L139.089 212.914L141.773 209.016L142.362 206.939L142.538 205.536L142.434 203.878L142.217 203.238L142.011 203.1L141.241 203.873L140.464 205.664L139.497 209.292L139.197 211.083L139.176 213.018L139.426 214.248L140.24 215.129L140.741 215.149" stroke="white" stroke-width="2" stroke-linejoin="round"/>
<path d="M97.541 61.7464L97.606 61.0869L97.7093 64.4338L97.8284 65.0145L97.9608 65.172L97.9859 64.8669" stroke="white" stroke-width="0.7" stroke-linejoin="round"/>
<path d="M94.8267 60.7865L97.5066 60.5503L99.7421 61.0671" stroke="white" stroke-width="0.7" stroke-linejoin="round"/>
<path d="M101.268 61.0967L101.405 61.8596L101.428 64.6551L102.268 63.4099L102.994 63.095L103.231 63.2475L103.488 63.8234L103.706 65.1129L103.567 64.9504" stroke="white" stroke-width="0.7" stroke-linejoin="round"/>
<path d="M105.699 62.7649L105.499 62.7846L105.917 63.0848L106.539 63.2029L107.056 63.1143L107.743 62.7353L108.215 62.1791L108.221 61.9774L107.963 61.8149L106.835 61.8445L106.116 62.4252L105.854 63.7886L105.964 64.6155L106.363 65.0043L106.91 65.1372L108.117 64.9846L108.788 64.6598" stroke="white" stroke-width="0.7" stroke-linejoin="round"/>
<path d="M112.383 61.0274L112.46 60.6533L112.572 65.2011L112.325 64.3053" stroke="white" stroke-width="0.7" stroke-linejoin="round"/>
<path d="M112.579 63.6608L112.503 63.4393L112.997 63.0505L113.32 62.8979H113.922L114.663 63.2375L115.615 64.0546L115.291 65.034L114.823 65.349L113.62 65.4868L112.951 65.3096" stroke="white" stroke-width="0.7" stroke-linejoin="round"/>
<path d="M118.815 63.897L118.633 63.6312L118.296 63.5869L117.643 63.9019L117.136 64.4629L117.089 65.2259L117.367 65.4326L117.696 65.339L118.846 64.0594L119.192 63.8822L119.52 65.4178L119.909 66.0478L120.092 65.9543" stroke="white" stroke-width="0.7" stroke-linejoin="round"/>
<path d="M121.063 65.8608L121.378 65.8165L122.272 64.9847L123.078 63.6214L123.744 61.5985L123.719 60.8652L123.553 60.5649L123.305 60.752L122.89 61.505L122.47 63.08L122.376 64.1677L122.637 65.91L122.964 66.3136L123.411 66.3579" stroke="white" stroke-width="0.7" stroke-linejoin="round"/>
<path d="M124.62 65.9247L124.8 65.9001L125.644 64.6647L126.323 63.2423L126.383 61.9577L125.978 61.0669L125.676 61.2441L125.389 61.8248L124.928 63.0602L124.831 63.8624L125.339 65.9001L125.941 66.7762L126.081 66.7958" stroke="white" stroke-width="0.7" stroke-linejoin="round"/>
<path d="M129.776 64.1925L129.994 63.7692L129.542 63.8726L129.178 64.6109L129.595 65.7773L130.138 66.1317L130.768 66.1169L131.34 65.8954L131.974 65.2605L132.33 64.3598L132.298 63.5969L131.905 62.7603L131.237 62.5142L130.426 63.0359L129.997 63.6708L129.768 64.3156L129.878 64.6355L130.221 64.8225" stroke="white" stroke-width="0.7" stroke-linejoin="round"/>
<path d="M134.998 61.0172L134.614 60.8252L134.751 60.8597L134.863 61.1698L134.907 64.369L135.085 65.688L134.525 64.1622L134.502 63.0105L134.742 62.2624L135.3 61.3273L136.119 60.7219L136.341 60.6924L136.139 61.0566" stroke="white" stroke-width="0.7" stroke-linejoin="round"/>
<path d="M132.938 63.2422L132.002 63.7984L132.343 63.6999L133.761 63.7689L136.302 64.0346L136.717 64.2512" stroke="white" stroke-width="0.7" stroke-linejoin="round"/>
<path d="M141.871 61.5981L141.939 62.2774L141.58 64.443L141.654 65.1665L141.756 65.3879L141.826 65.2944" stroke="white" stroke-width="0.7" stroke-linejoin="round"/>
<path d="M139.593 63.3604L139.104 63.5572L141.456 63.9904L143.011 64.1626L144.246 64.0986L143.894 63.9756" stroke="white" stroke-width="0.7" stroke-linejoin="round"/>
<path d="M143.813 62.593L144.538 62.1401L144.856 62.2435L144.994 62.4748L144.978 63.218L144.41 65.4181L144.643 65.7035L145.207 65.5362L146.694 64.3894L147.15 64.2171L147.099 65.4279L147.287 65.9004L147.538 66.0874L148.072 66.1908L148.796 66.0529L149.769 65.4279L150.421 64.7438L150.406 64.3747L149.928 63.9661L149.743 63.8825L149.297 64.1728L148.956 65.0391L148.851 65.861L149.035 66.3532L149.402 66.742L149.721 66.8848L150.116 66.8356" stroke="white" stroke-width="0.7" stroke-linejoin="round"/>
<path d="M154.12 61.1853L153.972 61.2689L154.218 64.217L154.174 66.0332L154.093 64.8273L154.333 62.6027L155.052 60.447L155.33 60.1763L155.852 60.2403L156.268 61.4559" stroke="white" stroke-width="0.7" stroke-linejoin="round"/>
<path d="M152.623 63.2622L153.856 63.144L155.512 63.5476L156.785 63.4541" stroke="white" stroke-width="0.7" stroke-linejoin="round"/>
<path d="M158.316 62.9023L157.945 63.05L157.774 64.1377L157.803 65.0384L157.966 65.3042L158.463 65.5256L158.851 65.5306L159.877 65.1417L160.47 64.3789L160.697 63.4191L160.643 63.1927L160.448 63.2222L159.885 63.9654" stroke="white" stroke-width="0.7" stroke-linejoin="round"/>
<path d="M162.411 65.0678L162.33 65.0186L162.631 64.679L162.922 63.9161L163.329 62.3116L163.399 59.521" stroke="white" stroke-width="0.7" stroke-linejoin="round"/>
<path d="M160.398 62.1104L160.434 61.9824L161.209 62.007L163.468 61.6724L164.338 61.756L164.82 62.1547" stroke="white" stroke-width="0.7" stroke-linejoin="round"/>
<path d="M165.453 62.6416L165.182 64.2707L165.403 64.8269L165.847 65.2058L166.572 65.2403L167.175 64.8171L167.746 64.0246L168.034 63.3503L168.023 63.0944L167.888 63.0895L167.591 63.5964" stroke="white" stroke-width="0.7" stroke-linejoin="round"/>
<path d="M169.879 62.6416L169.792 62.7745L170.085 66.0081L170.222 65.2502L171.041 63.5521L171.302 63.3503L172.45 63.7097" stroke="white" stroke-width="0.7" stroke-linejoin="round"/>
<path d="M173.457 64.0589L173.396 64.2509L174.486 64.4822L175.134 64.0196L175.271 63.6061L174.974 63.4535L174.128 63.3994L173.451 63.6799L173.255 63.8867L173.125 64.369L173.157 65.5404L173.407 66.0621L174.041 66.5149L175.134 66.6871L176.023 66.5198" stroke="white" stroke-width="0.7" stroke-linejoin="round"/>
<path d="M98.2466 71.2353L98.0557 71.0581L98.1064 73.4206L98.1698 73.583L98.2491 73.4698L98.4942 72.5297L98.5434 71.1418L98.5001 70.625L98.4037 70.6349L98.2845 71.8752L98.3948 72.4904" stroke="white" stroke-width="0.7" stroke-linejoin="round"/>
<path d="M98.5664 68.5186L98.3203 68.5776L98.437 69.0206" stroke="white" stroke-width="0.7" stroke-linejoin="round"/>
<path d="M101.878 70.4286L102.181 70.3744L102.206 70.2612L101.809 70.34L101.175 70.655L100.008 71.6049L100.784 71.531L102.018 72.0085L102.357 72.5499L102.283 73.3571L101.578 73.9279L100.545 74.1888L100.181 74.1101L100.079 73.8542" stroke="white" stroke-width="0.7" stroke-linejoin="round"/>
<path d="M107.625 69.5967L107.76 74.0607L107.98 73.9328L109.039 72.4169L109.721 72.2052L110.022 72.4907L110.294 73.2093L110.407 74.6415" stroke="white" stroke-width="0.7" stroke-linejoin="round"/>
<path d="M112.375 73.253L112.35 73.3958L112.978 73.6616L113.275 73.6468L113.877 73.2974L114.486 72.5935L114.479 72.2736L114.136 71.939L113.52 72.1112L112.803 72.8643L112.372 73.8437L112.393 74.5721L112.586 74.8084L113.699 74.8281L114.433 74.641L115.291 74.2079" stroke="white" stroke-width="0.7" stroke-linejoin="round"/>
<path d="M116.631 72.4116L116.532 72.6479L116.656 72.8743L116.736 74.5379L116.789 74.907L116.983 75.1334L117.93 73.4305L118.436 72.9579L118.997 72.7414L119.583 73.0416L119.782 72.9383" stroke="white" stroke-width="0.7" stroke-linejoin="round"/>
<path d="M120.516 74.0208L120.61 74.2078L121.2 74.3259L122.249 74.0749L122.869 73.6319L123.138 73.1299L123.097 72.9724L122.791 72.8149L121.891 73.1988L121.368 74.0257L121.078 75.2069L121.256 75.7138L121.649 76.0781L122.236 76.0928L123.013 75.8664" stroke="white" stroke-width="0.7" stroke-linejoin="round"/>
<path d="M126.865 73.6468L127.406 69.1729L127.206 69.4632L127.017 70.3492L126.713 72.9282L126.831 73.1496" stroke="white" stroke-width="0.7" stroke-linejoin="round"/>
<path d="M126.87 76.118L126.758 76.2607L126.794 76.6003L126.999 76.8365L127.406 76.6151L127.556 76.0884L127.36 75.7636L126.945 75.7144L126.644 76.1425L126.667 76.3149L126.927 76.4281" stroke="white" stroke-width="0.7" stroke-linejoin="round"/>
<path d="M171.311 19.876L171.202 20.0876L171.515 22.7601" stroke="white" stroke-width="0.7" stroke-linejoin="round"/>
<path d="M169.9 20.3244L169.706 19.9799L170.088 19.783L173.046 19.4385L173.428 19.5369L173.082 19.5566" stroke="white" stroke-width="0.7" stroke-linejoin="round"/>
<path d="M174.858 19.6055L174.721 19.6744L174.621 22.3125L174.72 22.721" stroke="white" stroke-width="0.7" stroke-linejoin="round"/>
<path d="M174.825 19.7728L175.209 20.0534L175.937 21.2494L176.254 21.4266L177.546 19.6006L177.42 21.146L177.61 22.3863L177.545 22.8686" stroke="white" stroke-width="0.7" stroke-linejoin="round"/>
</svg>
