<svg width="156" height="156" viewBox="0 0 156 156" fill="none" xmlns="http://www.w3.org/2000/svg">
<path fill-rule="evenodd" clip-rule="evenodd" d="M77.8699 155.352C35.1843 155.352 0.58252 120.753 0.58252 78.0665C0.58252 35.3837 35.1843 0.783936 77.8699 0.783936C120.559 0.783936 155.161 35.3837 155.161 78.0665C155.161 120.753 120.559 155.352 77.8699 155.352ZM77.8699 2.45209C36.1083 2.45209 2.25659 36.3079 2.25659 78.0665C2.25659 119.828 36.1083 153.681 77.8699 153.681C119.635 153.681 153.49 119.828 153.49 78.0665C153.49 36.3079 119.635 2.45209 77.8699 2.45209ZM150.277 77.3967C150.396 77.5899 150.46 77.8153 150.46 78.0536C150.46 78.3531 150.36 78.6269 150.187 78.8458L137.547 93.5919C137.399 93.7981 137.312 94.0525 137.312 94.323C137.312 94.4067 137.319 94.4872 137.335 94.5645L140.889 113.59C140.899 114.273 140.548 114.74 140.058 114.914L121.795 121.352C121.486 121.487 121.245 121.744 121.125 122.063L114.674 140.384C114.465 140.809 114.033 141.102 113.531 141.102L94.3531 137.531C94.2823 137.518 94.2115 137.511 94.1342 137.511C93.8251 137.511 93.5354 137.627 93.31 137.817L78.7198 150.316C78.4365 150.544 78.1629 150.647 77.8667 150.647C77.5609 150.647 77.2808 150.541 77.0683 150.364L62.4266 137.827C62.2077 137.634 61.9147 137.515 61.5992 137.515C61.522 137.515 61.4447 137.524 61.3739 137.534L42.3023 141.096C41.6842 141.099 41.2399 140.787 41.0436 140.339L34.5726 121.986C34.4342 121.68 34.1734 121.439 33.8579 121.323L15.6041 114.888C15.1534 114.698 14.8314 114.247 14.8314 113.726L18.4146 94.4357C18.421 94.0589 18.3373 93.8077 18.1893 93.6016L5.62083 78.936C5.3826 78.6365 5.27958 78.366 5.27958 78.0697C5.27958 77.7509 5.40192 77.4579 5.5983 77.2324L18.1281 62.5991C18.3084 62.3801 18.4146 62.1031 18.4146 61.7972C18.4146 61.7263 18.4114 61.6555 18.4017 61.5846L14.8604 42.6585C14.8411 42.5587 14.8347 42.4846 14.8347 42.4105C14.8347 41.8759 15.1663 41.4219 15.6299 41.2351L33.845 34.8137C34.1992 34.6881 34.4825 34.4047 34.608 34.0504L41.0178 15.8617C41.1949 15.3819 41.6585 15.0373 42.2025 15.0373L42.4054 15.0534L61.5059 18.6248C61.8665 18.628 62.1143 18.5443 62.3204 18.3994L77.0007 5.82704C77.2228 5.6145 77.5287 5.48568 77.8667 5.48568C78.1983 5.48568 78.5074 5.6145 78.7327 5.82704L93.4581 18.4413C93.6481 18.5572 93.8702 18.628 94.1084 18.628L94.44 18.5797L113.399 15.0405C114.036 15.0341 114.481 15.3368 114.68 15.7748L121.141 34.1116C121.267 34.4175 121.515 34.6623 121.814 34.7911L140.152 41.2512C140.596 41.4476 140.896 41.8888 140.896 42.4041L137.309 61.6845C137.306 62.0677 137.39 62.3221 137.535 62.525L150.277 77.3967ZM123.74 97.7656H116.48C116.518 98.1391 116.541 98.5191 116.541 98.9024C116.541 104.715 111.689 109.427 105.705 109.427C100.299 109.427 95.8179 105.581 95.0002 100.551L95.0195 100.316V98.9925C95.0195 98.0425 94.2501 97.2728 93.3004 97.2728H76.8075C76.4051 97.0603 76.1283 96.6384 76.1315 96.1167L76.2635 90.0753C76.2635 89.3797 76.8301 88.8129 77.5287 88.8129H90.5092C103.599 88.8129 114.21 78.205 114.21 65.1174V62.7021C114.21 49.6145 103.599 39.0066 90.5092 39.0066H74.3286L73.9133 39.0098L36.8101 39.0356L36.9582 41.1449C36.9582 42.1915 38.0914 43.0385 39.4886 43.0385L44.8038 43.0417C45.4477 43.0417 45.9789 43.5215 46.069 44.2526L49.2401 83.3898C49.2401 84.0371 48.7572 84.5685 48.1294 84.6458H43.3615C41.9643 84.6458 40.8343 85.5636 40.8343 86.6971C40.8343 87.8307 41.9643 88.7517 43.3615 88.7517L48.5157 88.7549C49.1435 88.7549 49.6715 89.2155 49.7648 89.8177L50.2832 96.3325C50.2832 97.0345 49.7133 97.5981 49.0212 97.5981H44.4818C43.0846 97.5981 41.9514 98.5191 41.9514 99.6527C41.9514 100.786 43.0846 101.707 44.4818 101.707H49.6747C50.2767 101.762 50.7564 102.242 50.8176 102.892L51.3455 109.307C51.3455 110.003 50.7789 110.57 50.0771 110.57H46.1108C44.7169 110.57 43.5836 111.703 43.5836 113.098L43.3325 115.822H86.3176L86.1083 113.098C86.1083 111.703 84.9751 110.57 83.5779 110.57H77.0426C76.3697 110.538 75.8417 109.987 75.8417 109.288L75.9737 103.095C75.993 102.635 76.2602 102.239 76.6498 102.036H91.2593C92.6983 109.526 99.3657 115.191 107.375 115.191C116.438 115.191 123.781 107.942 123.781 98.9957C123.781 98.5835 123.768 98.1745 123.74 97.7656ZM78.5428 43.2382H82.8406C92.6146 43.2382 100.534 51.1603 100.534 60.9309V66.8886C100.534 76.6592 92.6146 84.5813 82.8406 84.5813H76.3826L77.2776 44.5038C77.2776 43.8049 77.841 43.2382 78.5428 43.2382ZM95.5668 141.553C96.8771 141.553 97.9363 142.613 97.9363 143.923C97.9363 145.231 96.8771 146.29 95.5668 146.29C94.2565 146.29 93.1974 145.231 93.1974 143.923C93.1974 142.613 94.2565 141.553 95.5668 141.553Z" fill="black"/>
</svg>
